<?xml version="1.0" encoding="utf-8"?>
<!-- Generator: Adobe Illustrator 24.1.2, SVG Export Plug-In . SVG Version: 6.00 Build 0)  -->
<svg version="1.1" xmlns="http://www.w3.org/2000/svg" xmlns:xlink="http://www.w3.org/1999/xlink" x="0px" y="0px"
	 viewBox="0 0 127.09 127.09" style="enable-background:new 0 0 127.09 127.09;" xml:space="preserve">
<style type="text/css">
	.st0{clip-path:url(#SVGID_2_);fill:#2A4F6B;}
	.st1{clip-path:url(#SVGID_2_);}
	.st2{fill:#FFFFFF;}
	.st3{fill:#4894D0;}
	.st4{fill:#FFDF4D;}
</style>
<g id="Layer_2">
</g>
<g id="Layer_1">
	<g>
		<defs>
			<rect id="SVGID_1_" width="127.09" height="127.09"/>
		</defs>
		<clipPath id="SVGID_2_">
			<use xlink:href="#SVGID_1_"  style="overflow:visible;"/>
		</clipPath>
		<rect x="-233.28" y="-267.28" class="st0" width="640" height="640"/>
		<g class="st1">
			<path class="st2" d="M35.11,111.54c-5.77,0-10.51-1.42-14.1-4.23c-3.74-2.92-6.4-7.24-7.91-12.82
				c-1.28-4.75-1.93-10.55-1.93-17.25c0-5.42,0.33-10.11,0.99-13.93c0.7-4.09,1.65-7.41,2.9-10.15c1.31-2.87,2.84-5.19,4.56-6.9
				c1.79-1.78,3.72-3.02,5.72-3.69c1.73-0.58,3.43-0.87,5.05-0.87c3.36,0,6.27,0.83,8.64,2.46c2.41,1.67,4.24,3.89,5.44,6.61
				c1.12,2.54,1.68,5.2,1.68,7.9c0,2.47-0.43,5.09-1.32,8.03c-0.73,2.4-1.65,4.95-2.72,7.56c-1,2.44-2.06,4.91-3.14,7.36
				c-0.98,2.22-1.84,4.36-2.55,6.37c-0.42,1.17-0.73,2.24-0.94,3.18c0.06,0,0.11,0,0.17,0c0.84,0,1.24-0.12,1.36-0.16l2.54-1.88
				c1.94-1.43,3.77-2.13,5.62-2.13c0.45,0,0.9,0.04,1.34,0.13c2.03,0.41,3.73,1.43,5.06,3.05c0.89,1.08,1.5,2.04,1.92,3.03
				c0.89,2.18,1.54,5.55-0.29,9.61c-1.19,2.63-3.25,4.74-6.14,6.27l-0.12,0.06c-1.65,0.81-3.52,1.41-5.61,1.81
				C39.37,111.35,37.28,111.54,35.11,111.54z"/>
			<path class="st2" d="M66.09,111.54c-7.68,0-13.62-2.71-17.66-8.06c-3.86-5.1-5.81-12.12-5.81-20.86c0-3.33,0.31-6.53,0.92-9.5
				c0.67-3.29,1.8-6.27,3.37-8.87c1.72-2.85,4.02-5.09,6.84-6.66c2.69-1.49,5.93-2.25,9.61-2.25c4.61,0,8.63,1.02,11.95,3.04
				c3.49,2.12,6.19,5.08,8.02,8.81C85.09,70.82,86,74.89,86,79.28c0,2.76-0.55,5.51-1.63,8.18c-0.96,2.35-2.36,4.5-4.16,6.38
				c0.12,0.25,0.22,0.51,0.32,0.78c1.17,2.92,1.03,6.21-0.4,9.26c-1.16,2.48-2.84,4.32-4.98,5.48c-1.15,0.61-2.35,1.12-3.59,1.51
				C70.12,111.32,68.33,111.54,66.09,111.54z"/>
			<path class="st2" d="M126.22,111.54c-2.87,0-5.4-1.91-6.77-5.12c-0.72-1.69-1.1-3.79-1.19-6.7c-0.02,0.05-0.03,0.1-0.05,0.15
				c-0.89,2.72-2,5.09-3.31,7.02c-2.03,3-4.77,4.65-7.72,4.65c-2.59,0-4.93-1.32-6.41-3.62c-0.98-1.52-1.61-3.36-1.89-5.47
				c-0.01-0.05-0.01-0.1-0.02-0.15c-0.53,2.27-1.23,4-2.16,5.36c-1.31,1.9-2.84,3.09-4.55,3.54c-0.89,0.23-1.57,0.34-2.21,0.34
				c-2.74,0-5.25-1.67-6.89-4.59c-0.83-1.48-1.54-3.2-2.12-5.1c-0.48-1.62-0.93-3.6-1.37-5.93c-0.41-2.19-0.79-4.56-1.14-7.03
				c-0.35-2.48-0.64-4.94-0.86-7.3c-0.24-2.51-0.36-4.77-0.36-6.73c0-6,1.07-10.52,3.28-13.82c2.45-3.66,5.94-5.67,9.85-5.67
				c2.27,0,4.41,0.62,6.37,1.84c0.64,0.4,1.26,0.87,1.83,1.39c0.56-0.48,1.12-0.91,1.67-1.29c1.88-1.29,4-1.94,6.31-1.94
				c2.62,0,5.07,0.77,7.28,2.28c0.6,0.41,1.17,0.86,1.7,1.33c0.55-0.5,1.1-0.96,1.63-1.36c1.96-1.49,4.21-2.25,6.69-2.25
				c3.05,0,5.92,1.03,8.53,3.07c2.57,2.01,4.61,5.01,6.06,8.92c1.32,3.56,1.99,8.01,1.99,13.23c0,3.43-0.29,6.85-0.88,10.17
				c-0.58,3.31-1.37,6.36-2.35,9.07c-1.07,2.97-2.26,5.34-3.63,7.25C130.91,110.76,128.11,111.54,126.22,111.54z"/>
			<path class="st2" d="M154.97,111.54c-4.28,0-8.24-1.38-11.77-4.11c-3.42-2.64-6.18-6.36-8.18-11.04
				c-1.95-4.55-2.94-9.85-2.94-15.74c0-7.9,1.93-14.16,5.73-18.6c3.8-4.44,9.46-6.7,16.81-6.7c7.44,0,13.14,2.29,16.95,6.8
				c3.79,4.48,5.71,10.75,5.71,18.64c0,5.81-0.95,11.05-2.82,15.56c-1.93,4.66-4.6,8.37-7.94,11.03
				C163.05,110.14,159.17,111.54,154.97,111.54z"/>
			<path class="st2" d="M199.5,111.54c-2.86,0-5.39-1.84-6.78-4.93c-0.85-1.88-1.24-4.31-1.27-7.84c-0.18,1.11-0.4,2.17-0.65,3.18
				c-0.5,2.22-1.27,4.13-2.28,5.68c-1.66,2.53-4.01,3.92-6.62,3.92c-2.61,0-4.97-1.37-6.66-3.85c-1.06-1.56-1.89-3.52-2.54-5.99
				c-0.56-2.31-1.12-4.94-1.67-7.9c-0.56-3-1.03-6.25-1.4-9.65c-0.38-3.49-0.57-7.08-0.57-10.66c0-5.28,1.23-9.61,3.66-12.85
				c2.59-3.45,5.9-5.28,9.59-5.28c2.17,0,4.25,0.63,6.2,1.87c0.58,0.37,1.13,0.79,1.66,1.26c0.55-0.47,1.11-0.89,1.69-1.27
				c1.9-1.24,4.15-1.86,6.69-1.86c2.97,0,5.69,1.07,8.1,3.18c2.23,1.96,4,4.76,5.25,8.34c1.13,3.25,1.71,7.22,1.71,11.8
				c0,4.07-0.29,7.95-0.86,11.52c-0.58,3.62-1.37,6.87-2.35,9.67c-1.08,3.09-2.29,5.51-3.68,7.39
				C204.13,110.79,201.36,111.54,199.5,111.54z"/>
			<path class="st2" d="M238.83,111.54c-5.31,0-9.76-1.44-13.22-4.28c-3.58-2.94-6.14-7.49-7.61-13.52
				c-1.25-5.12-1.88-11.78-1.88-19.77c0-5.39,0.3-9.99,0.88-13.67c0.69-4.32,1.95-7.9,3.73-10.64c1.95-2.98,4.56-5.13,7.76-6.38
				c2.72-1.06,5.91-1.57,9.75-1.57c5.89,0,11.25,1.11,15.95,3.31c5.05,2.36,9.1,6.01,12.05,10.85c3.01,4.93,4.54,11.05,4.54,18.16
				c0,4.74-0.72,9.39-2.15,13.81c-1.44,4.46-3.55,8.5-6.28,12.02c-2.78,3.58-6.18,6.45-10.12,8.52
				C248.26,110.48,243.76,111.54,238.83,111.54z M237.55,91.18c0.6,0,1.05-0.16,1.51-0.54c0.61-0.51,1.1-1.25,1.52-2.32
				c0.48-1.22,0.73-2.72,0.73-4.47c0-2.54-0.51-3.45-0.73-3.72c-0.38-0.47-1.29-0.73-2.56-0.73c-0.42,0-0.71,0.03-0.92,0.06
				c0,0.02-0.01,0.04-0.01,0.06c-0.24,1.2-0.37,2.89-0.37,4.88c0,1.99,0.13,3.82,0.4,5.45c0.1,0.63,0.23,1.06,0.35,1.33
				C237.48,91.18,237.51,91.18,237.55,91.18z"/>
			<path class="st2" d="M275.18,111.54c-2.63,0-5.02-1.4-6.71-3.95c-1.04-1.57-1.86-3.52-2.5-5.96c-0.56-2.32-1.12-4.96-1.67-7.9
				c-0.56-3-1.03-6.25-1.4-9.65c-0.38-3.49-0.57-7.08-0.57-10.66c0-5.3,1.24-9.62,3.68-12.85c2.59-3.41,5.89-5.22,9.56-5.22
				c2.14,0,4.2,0.6,6.14,1.79c0.69,0.43,1.35,0.93,1.98,1.51c0.43-0.37,0.86-0.71,1.29-1.04c2.01-1.52,4.48-2.27,7.55-2.27
				c3.66,0,6.89,1.64,9.34,4.74c2.36,2.99,3.56,6.86,3.56,11.48c0,2.87-0.38,5.61-1.13,8.15c-0.87,2.93-2.22,5.36-4,7.21
				c-2.12,2.2-4.72,3.32-7.71,3.32c-1.81,0-3.51-0.43-5.07-1.27c-0.42-0.23-0.84-0.46-1.25-0.68c-0.27,1.09-0.49,2.28-0.67,3.56
				c-0.23,1.69-0.44,3.33-0.63,4.92c-0.23,1.93-0.54,3.65-0.92,5.13c-0.5,2.18-1.25,4.07-2.23,5.61
				C280.21,110.07,277.78,111.54,275.18,111.54z"/>
			<path class="st2" d="M318.66,111.54c-4.28,0-8.24-1.38-11.77-4.11c-3.42-2.64-6.18-6.36-8.18-11.04
				c-1.95-4.56-2.94-9.85-2.94-15.74c0-7.9,1.93-14.16,5.74-18.6c3.8-4.44,9.46-6.69,16.81-6.69c7.44,0,13.14,2.29,16.95,6.8
				c3.79,4.48,5.71,10.75,5.71,18.63c0,5.81-0.95,11.05-2.82,15.56c-1.93,4.66-4.61,8.37-7.94,11.03
				C326.74,110.14,322.85,111.54,318.66,111.54z"/>
			<path class="st2" d="M347.18,124.23c-3.34,0-6.23-1.81-7.93-4.96c-0.97-1.79-1.76-3.99-2.42-6.72c-0.46-1.91-0.94-4.24-1.41-6.91
				c-0.47-2.64-0.9-5.51-1.28-8.53c-0.38-3.01-0.7-6.08-0.94-9.13c-0.25-3.12-0.38-6.12-0.38-8.91c0-7.49,1.03-12.97,3.15-16.76
				c2.52-4.49,6.56-6.97,11.38-6.97c3.3,0,6.25,1.13,8.66,3.29c0.73-0.58,1.51-1.09,2.33-1.53c2.2-1.17,4.58-1.76,7.06-1.76
				c3.01,0,5.7,0.8,8.01,2.39c2.18,1.5,4,3.53,5.39,6.02c1.26,2.26,2.2,4.79,2.78,7.53c0.54,2.54,0.81,5.18,0.81,7.85
				c0,3.52-0.45,7.12-1.33,10.71c-0.88,3.59-2.16,6.95-3.8,10.02c-1.76,3.28-3.91,6-6.41,8.07c-2.87,2.38-6.1,3.59-9.59,3.59
				c-1.12,0-2.2-0.15-3.23-0.46c-0.11,0.47-0.22,0.95-0.35,1.44c-0.73,2.97-1.62,5.3-2.73,7.12
				C353.15,122.61,350.39,124.23,347.18,124.23z"/>
			<path class="st3" d="M35.11,108.21c-5.19,0-9.4-1.23-12.52-3.67c-3.19-2.49-5.47-6.21-6.77-11.05c-1.19-4.42-1.8-9.89-1.8-16.25
				c0-5.2,0.31-9.67,0.93-13.28c0.65-3.77,1.5-6.79,2.62-9.24c1.14-2.5,2.45-4.49,3.88-5.92c1.48-1.47,3.04-2.48,4.66-3.02
				c1.48-0.49,2.91-0.74,4.26-0.74c2.84,0,5.26,0.67,7.18,2c1.94,1.34,3.41,3.12,4.36,5.27c0.91,2.06,1.37,4.21,1.37,6.37
				c0,2.08-0.38,4.34-1.16,6.91c-0.7,2.29-1.57,4.72-2.6,7.22c-1,2.42-2.04,4.87-3.1,7.28c-1.01,2.3-1.9,4.53-2.65,6.61
				c-0.69,1.93-1.14,3.65-1.33,5.11c-0.11,0.78-0.07,1.4,0.09,1.71c0.12,0.18,0.34,0.41,0.84,0.6c0.71,0.26,1.48,0.39,2.27,0.39
				c1.72,0,2.49-0.38,2.8-0.61l2.63-1.95c1.46-1.08,2.8-1.61,4.09-1.61c0.29,0,0.58,0.03,0.86,0.08c1.41,0.28,2.58,0.98,3.48,2.07
				c0.68,0.83,1.14,1.53,1.43,2.21c0.6,1.46,1.02,3.73-0.26,6.56c-0.88,1.96-2.5,3.57-4.79,4.79l-0.08,0.04
				c-1.4,0.69-3.06,1.22-4.93,1.58C39.06,108.03,37.13,108.21,35.11,108.21z"/>
			<path class="st3" d="M66.09,108.21c-6.83,0-12.05-2.33-15.52-6.93c-3.38-4.48-5.1-10.75-5.1-18.65c0-3.07,0.28-6,0.84-8.72
				c0.59-2.88,1.57-5.48,2.92-7.73c1.43-2.38,3.36-4.25,5.73-5.56c2.31-1.28,5.13-1.93,8.38-1.93c4.15,0,7.72,0.9,10.64,2.66
				c3,1.82,5.3,4.34,6.86,7.51c1.53,3.12,2.31,6.62,2.31,10.43c0,2.26-0.46,4.54-1.36,6.75c-0.9,2.22-2.3,4.23-4.15,5.98
				c-0.48,0.46-1,0.89-1.55,1.3c0.79,0.63,1.42,1.54,1.84,2.68c0.79,1.95,0.69,4.17-0.3,6.28c-0.86,1.84-2.1,3.2-3.67,4.05
				c-1,0.53-2.05,0.97-3.14,1.32C69.61,108.02,68.07,108.21,66.09,108.21z M62.66,84.78c0.06,0.02,0.16,0.04,0.33,0.04
				c0.07,0,0.1,0,0.2-0.1c0.33-0.34,0.59-0.73,0.8-1.19c0.22-0.51,0.24-0.76,0.24-0.83c0-0.22-0.02-0.37-0.03-0.46
				c-0.11-0.04-0.34-0.09-0.74-0.09c-0.3,0-0.46,0.04-0.52,0.06c-0.05,0.06-0.09,0.14-0.12,0.29c-0.12,0.58-0.18,1.2-0.18,1.84
				C62.63,84.55,62.65,84.7,62.66,84.78z"/>
			<path class="st3" d="M126.22,108.21c-1.79,0-3.33-1.19-4.22-3.28c-0.62-1.46-0.91-3.58-0.91-6.68c0-1.45-0.03-3.01-0.09-4.64
				c-0.05-1.46-0.2-2.84-0.45-4.08c-0.18-0.91-0.47-1.63-0.86-2.14c-0.06-0.09-0.2-0.26-0.78-0.26c-0.25,0-0.38,0.03-0.44,0.05
				c-0.23,0.33-0.41,0.78-0.52,1.35c-0.23,1.13-0.46,2.28-0.7,3.45c-0.41,2.2-0.99,4.47-1.72,6.71c-0.78,2.4-1.75,4.47-2.88,6.14
				c-1.89,2.79-4.03,3.38-5.48,3.38c-1.71,0-3.18-0.81-4.12-2.29c-0.69-1.08-1.15-2.42-1.36-3.98c-0.16-1.18-0.24-2.42-0.24-3.69
				c0-1.53-0.03-3.15-0.09-4.82c-0.05-1.46-0.21-2.82-0.47-4.02c-0.19-0.88-0.48-1.57-0.85-2.04c-0.17-0.21-0.57-0.26-0.88-0.26
				c-0.33,0-0.72,0.06-0.82,0.21c-0.38,0.58-0.65,1.43-0.81,2.53c-0.22,1.53-0.39,3.2-0.49,4.95c-0.13,2.05-0.39,4.01-0.78,5.82
				c-0.45,2.23-1.03,3.81-1.8,4.93c-0.91,1.32-1.88,2.1-2.96,2.39c-0.67,0.18-1.15,0.25-1.57,0.25c-1.04,0-3-0.4-4.49-3.08
				c-0.71-1.26-1.32-2.74-1.82-4.39c-0.43-1.47-0.86-3.32-1.27-5.53c-0.4-2.14-0.77-4.44-1.11-6.86c-0.34-2.42-0.62-4.82-0.84-7.13
				c-0.22-2.39-0.34-4.53-0.34-6.37c0-5.22,0.88-9.08,2.68-11.77c1.92-2.87,4.55-4.39,7.6-4.39c1.79,0,3.48,0.49,5.03,1.45
				c1.16,0.72,2.17,1.69,3.02,2.89c1.11-1.17,2.21-2.13,3.27-2.86c1.43-0.99,3.07-1.48,4.87-1.48c2.1,0,4.07,0.61,5.83,1.82
				c1.23,0.84,2.25,1.81,3.07,2.88c1.12-1.19,2.22-2.2,3.27-3c1.48-1.13,3.21-1.7,5.13-1.7c2.48,0,4.81,0.84,6.94,2.51
				c2.11,1.65,3.8,4.17,5.03,7.48c1.16,3.14,1.76,7.15,1.76,11.9c0,3.21-0.28,6.4-0.82,9.5c-0.54,3.09-1.28,5.93-2.18,8.44
				c-0.96,2.66-2,4.75-3.19,6.41C129.81,107.1,128.08,108.21,126.22,108.21z"/>
			<path class="st3" d="M154.97,108.21c-3.71,0-7.14-1.2-10.2-3.56c-3-2.32-5.42-5.6-7.2-9.75c-1.75-4.09-2.64-8.88-2.64-14.25
				c0-6.98,1.65-12.45,4.9-16.24c3.25-3.79,8.23-5.72,14.79-5.72c6.65,0,11.67,1.95,14.92,5.8c3.24,3.84,4.88,9.32,4.88,16.29
				c0,5.31-0.85,10.05-2.54,14.11c-1.71,4.13-4.06,7.4-6.98,9.73C161.93,107,158.58,108.21,154.97,108.21z M154.74,86.78
				c-0.82,0-1.01,0.32-1.14,0.55c-0.31,0.53-0.68,1.63-0.68,3.83c0,2.32,0.37,3.47,0.69,4.02c0.14,0.25,0.32,0.56,1.13,0.56
				c0.7,0,0.89-0.24,1.07-0.57c0.44-0.78,0.69-2.2,0.69-4.02c0-2.2-0.37-3.3-0.68-3.83C155.65,87.03,155.45,86.78,154.74,86.78z"/>
			<path class="st3" d="M199.5,108.21c-1.8,0-3.35-1.15-4.25-3.15c-0.65-1.45-0.94-3.5-0.94-6.67c0-1.23-0.02-2.62-0.06-4.28
				c-0.03-1.42-0.18-2.82-0.43-4.15c-0.2-1.04-0.5-1.87-0.91-2.47c-0.05-0.08-0.17-0.24-0.72-0.24c-0.96,0-1.21,0.34-1.3,0.47
				c-0.5,0.69-0.88,1.62-1.12,2.79c-0.32,1.55-0.58,3.21-0.76,4.94c-0.21,2.02-0.53,3.9-0.96,5.6c-0.41,1.81-1.01,3.34-1.8,4.54
				c-1.1,1.68-2.64,2.61-4.35,2.61c-1.74,0-3.27-0.9-4.43-2.59c-0.84-1.23-1.5-2.82-2.04-4.89c-0.54-2.21-1.07-4.76-1.61-7.64
				c-0.54-2.9-1-6.05-1.36-9.36c-0.36-3.35-0.55-6.8-0.55-10.24c0-4.45,0.99-8.04,2.96-10.66c2.03-2.71,4.6-4.14,7.44-4.14
				c1.68,0,3.31,0.49,4.84,1.46c1.09,0.69,2.08,1.64,2.95,2.83c0.96-1.15,2.02-2.11,3.16-2.85c1.47-0.96,3.26-1.44,5.3-1.44
				c2.34,0,4.49,0.84,6.39,2.51c1.81,1.59,3.27,3.92,4.32,6.94c0.99,2.85,1.5,6.39,1.5,10.54c0,3.87-0.27,7.54-0.81,10.91
				c-0.54,3.4-1.27,6.43-2.18,9.01c-0.97,2.75-2.01,4.87-3.2,6.48C203.05,107.15,201.34,108.21,199.5,108.21z"/>
			<path class="st3" d="M238.83,108.21c-4.71,0-8.61-1.24-11.58-3.68c-3.03-2.49-5.22-6.43-6.51-11.71
				c-1.18-4.83-1.77-11.17-1.77-18.86c0-5.18,0.28-9.58,0.84-13.06c0.61-3.8,1.68-6.91,3.2-9.22c1.59-2.44,3.74-4.2,6.39-5.24
				c2.42-0.94,5.31-1.4,8.85-1.4c5.52,0,10.53,1.03,14.88,3.07c4.53,2.12,8.16,5.38,10.79,9.69c2.66,4.36,4.01,9.82,4.01,16.23
				c0,4.34-0.66,8.59-1.97,12.64c-1.31,4.06-3.24,7.75-5.73,10.96c-2.51,3.24-5.6,5.84-9.18,7.73
				C247.46,107.25,243.35,108.21,238.83,108.21z M238.01,76.07c-1.82,0-2.52,0.45-2.74,0.65c-0.46,0.41-0.78,1.08-0.97,2.04
				c-0.3,1.47-0.45,3.37-0.45,5.65c0,2.2,0.15,4.24,0.45,6.07c0.23,1.44,0.64,2.55,1.23,3.32c0.14,0.18,0.55,0.72,2.02,0.72
				c1.19,0,2.23-0.38,3.16-1.16c1.02-0.85,1.82-2.04,2.46-3.63c0.66-1.66,0.99-3.64,0.99-5.87c0-2.75-0.51-4.77-1.5-6.01
				C241.69,76.65,240.17,76.07,238.01,76.07z"/>
			<path class="st3" d="M275.18,108.21c-1.73,0-3.31-0.94-4.45-2.66c-0.82-1.24-1.49-2.84-2.02-4.89c-0.53-2.2-1.07-4.75-1.61-7.63
				c-0.54-2.9-1-6.05-1.36-9.36c-0.36-3.35-0.55-6.8-0.55-10.25c0-4.46,1-8.04,2.97-10.64c2.03-2.68,4.6-4.09,7.43-4.09
				c1.67,0,3.29,0.47,4.81,1.41c1.17,0.72,2.21,1.73,3.12,3.02c0.98-1.01,1.99-1.92,3.02-2.7c1.54-1.16,3.5-1.73,5.99-1.73
				c2.84,0,5.35,1.27,7.24,3.67c1.86,2.36,2.8,5.46,2.8,9.22c0,2.5-0.33,4.87-0.97,7.06c-0.71,2.38-1.78,4.34-3.2,5.8
				c-1.58,1.64-3.54,2.48-5.81,2.48c-1.39,0-2.69-0.32-3.86-0.96c-0.81-0.44-1.61-0.88-2.39-1.32c-0.36-0.21-0.82-0.31-1.35-0.31
				c-0.14,0-0.18,0-0.31,0.19c-0.42,0.59-0.77,1.42-1.05,2.47c-0.35,1.32-0.63,2.79-0.84,4.35c-0.23,1.71-0.44,3.37-0.64,4.99
				c-0.21,1.78-0.49,3.35-0.84,4.68c-0.4,1.79-1,3.31-1.77,4.53C278.45,107.26,276.9,108.21,275.18,108.21z"/>
			<path class="st3" d="M318.66,108.21c-3.71,0-7.14-1.2-10.2-3.56c-3-2.32-5.42-5.6-7.2-9.75c-1.75-4.09-2.64-8.88-2.64-14.25
				c0-6.98,1.65-12.45,4.9-16.24c3.25-3.79,8.22-5.72,14.79-5.72c6.65,0,11.67,1.95,14.92,5.8c3.24,3.84,4.88,9.32,4.88,16.29
				c0,5.3-0.85,10.05-2.54,14.11c-1.71,4.13-4.06,7.41-6.98,9.73C325.61,107,322.27,108.21,318.66,108.21z M318.42,86.78
				c-0.82,0-1.01,0.32-1.14,0.55c-0.31,0.53-0.68,1.63-0.68,3.83c0,2.32,0.37,3.47,0.69,4.02c0.14,0.25,0.32,0.56,1.13,0.56
				c0.7,0,0.89-0.24,1.07-0.56c0.31-0.55,0.69-1.69,0.69-4.02c0-2.2-0.37-3.29-0.68-3.83C319.33,87.03,319.13,86.78,318.42,86.78z"
				/>
			<path class="st3" d="M347.18,120.9c-2.37,0-4.33-1.21-5.51-3.4c-0.82-1.51-1.5-3.43-2.08-5.85c-0.45-1.84-0.9-4.09-1.36-6.68
				c-0.46-2.59-0.88-5.4-1.26-8.34c-0.37-2.93-0.69-5.95-0.92-8.95c-0.24-3.02-0.36-5.91-0.36-8.6c0-6.82,0.88-11.71,2.69-14.93
				c2.01-3.57,5.11-5.46,8.99-5.46c3.48,0,6.4,1.51,8.55,4.39c1.03-1.21,2.24-2.2,3.63-2.93c1.83-0.97,3.81-1.46,5.88-1.46
				c2.49,0,4.7,0.65,6.56,1.93c1.8,1.24,3.3,2.91,4.45,4.97c1.09,1.95,1.89,4.14,2.4,6.51c0.48,2.28,0.73,4.65,0.73,7.05
				c0,3.21-0.41,6.5-1.22,9.79c-0.81,3.29-1.98,6.37-3.48,9.17c-1.56,2.91-3.46,5.31-5.64,7.12c-2.38,1.97-5.05,2.97-7.94,2.97
				c-1.95,0-3.7-0.58-5.23-1.72c-0.08,0.41-0.15,0.79-0.21,1.16c-0.21,1.15-0.5,2.48-0.87,3.96c-0.64,2.61-1.4,4.61-2.31,6.12
				C351.36,119.8,349.48,120.9,347.18,120.9z M356.72,87.97c0,0-0.31,0.52-0.31,2.3c0,1.53,0.28,2.17,0.4,2.37
				c0.01,0.02,0.13,0.1,0.48,0.1c0.72,0,1.05-0.24,1.26-0.46c0.5-0.5,0.85-1.07,1.09-1.74c0.33-0.93,0.4-1.51,0.4-1.84
				c0-0.48-0.12-0.65-0.25-0.8c-0.03-0.03-0.38-0.37-1.62-0.37C357.47,87.53,356.98,87.68,356.72,87.97L356.72,87.97z"/>
			<g>
				<g>
					<path class="st4" d="M35.11,104.87c-4.64,0-8.28-1.03-10.93-3.1c-2.65-2.07-4.53-5.16-5.64-9.28
						c-1.11-4.12-1.67-9.2-1.67-15.25c0-5,0.29-9.21,0.88-12.62c0.58-3.41,1.36-6.19,2.34-8.32c0.97-2.14,2.05-3.79,3.21-4.95
						c1.17-1.16,2.37-1.94,3.59-2.35c1.23-0.41,2.39-0.61,3.48-0.61c2.34,0,4.25,0.51,5.73,1.54c1.48,1.02,2.57,2.33,3.27,3.92
						c0.7,1.59,1.05,3.21,1.05,4.84c0,1.68-0.33,3.62-0.99,5.8c-0.66,2.18-1.49,4.48-2.48,6.89c-0.99,2.41-2.02,4.81-3.07,7.2
						c-1.05,2.39-1.97,4.67-2.75,6.86c-0.78,2.18-1.29,4.14-1.52,5.87c-0.23,1.73-0.04,3.12,0.58,4.16
						c0.55,0.86,1.31,1.48,2.31,1.84c0.99,0.36,2.04,0.55,3.13,0.55c1.87,0,3.31-0.38,4.32-1.13c1.01-0.75,1.89-1.4,2.63-1.94
						c1.17-0.86,2.15-1.22,2.95-1.06c0.8,0.16,1.43,0.52,1.9,1.09c0.47,0.57,0.78,1.04,0.94,1.4c0.43,1.05,0.35,2.22-0.23,3.51
						c-0.58,1.3-1.73,2.4-3.45,3.31c-1.21,0.59-2.64,1.05-4.3,1.36C38.75,104.71,36.98,104.87,35.11,104.87z"/>
					<path class="st4" d="M66.09,104.87c-6,0-10.46-1.93-13.38-5.8c-2.92-3.87-4.38-9.35-4.38-16.44c0-2.82,0.25-5.47,0.76-7.95
						c0.51-2.48,1.33-4.67,2.48-6.58c1.15-1.91,2.69-3.4,4.62-4.47c1.93-1.07,4.31-1.6,7.16-1.6c3.7,0,6.81,0.76,9.32,2.29
						c2.51,1.52,4.41,3.59,5.7,6.21c1.29,2.62,1.93,5.54,1.93,8.77c0,1.77-0.36,3.55-1.08,5.32c-0.72,1.77-1.84,3.38-3.36,4.81
						c-1.52,1.43-3.44,2.59-5.76,3.48c-2.32,0.89-5.09,1.33-8.33,1.33c-0.86,0-1.44,0.14-1.75,0.41c-0.31,0.27-0.47,0.66-0.47,1.16
						c0,1.05,0.39,1.77,1.17,2.18c0.78,0.41,1.69,0.61,2.75,0.61c1.05,0,1.95-0.04,2.69-0.14c0.9-0.09,1.74-0.3,2.54-0.61
						c0.8-0.32,1.67-0.84,2.6-1.57c0.66-0.55,1.41-0.75,2.25-0.61c0.84,0.14,1.43,0.71,1.78,1.71c0.43,1,0.36,2.1-0.2,3.31
						c-0.57,1.21-1.35,2.08-2.37,2.63c-0.86,0.46-1.75,0.83-2.69,1.13C69.13,104.72,67.8,104.87,66.09,104.87z M62.99,88.15
						c0.78,0,1.47-0.31,2.07-0.92c0.6-0.61,1.09-1.34,1.46-2.18c0.37-0.84,0.56-1.63,0.56-2.35c0-2.59-1.21-3.89-3.62-3.89
						c-1.01,0-1.79,0.27-2.34,0.82c-0.55,0.55-0.91,1.24-1.08,2.08c-0.18,0.84-0.26,1.72-0.26,2.63c0,1.27,0.29,2.23,0.88,2.87
						C61.24,87.84,62.02,88.15,62.99,88.15z"/>
					<path class="st4" d="M107.17,104.87c-0.82,0-1.43-0.32-1.84-0.96c-0.41-0.64-0.68-1.47-0.82-2.49c-0.14-1.02-0.2-2.08-0.2-3.17
						c0-1.59-0.03-3.24-0.09-4.95c-0.06-1.71-0.24-3.28-0.56-4.71c-0.31-1.43-0.82-2.59-1.52-3.48c-0.7-0.89-1.69-1.33-2.98-1.33
						c-1.4,0-2.43,0.51-3.1,1.54c-0.66,1.02-1.11,2.35-1.34,3.99c-0.23,1.64-0.41,3.39-0.53,5.25c-0.12,1.87-0.35,3.62-0.7,5.25
						c-0.35,1.73-0.77,2.95-1.26,3.65c-0.49,0.7-0.95,1.11-1.37,1.23c-0.43,0.11-0.74,0.17-0.94,0.17c-0.82,0-1.52-0.52-2.1-1.57
						c-0.58-1.05-1.09-2.27-1.52-3.68c-0.39-1.32-0.78-3.02-1.17-5.12c-0.39-2.09-0.75-4.32-1.08-6.69
						c-0.33-2.36-0.6-4.68-0.82-6.96c-0.21-2.27-0.32-4.28-0.32-6c0-4.41,0.69-7.65,2.07-9.72c1.38-2.07,3.16-3.1,5.35-3.1
						c1.32,0,2.55,0.35,3.68,1.06c1.13,0.71,2.06,1.74,2.8,3.1c0.19,0.36,0.38,0.67,0.55,0.92c0.18,0.25,0.4,0.38,0.67,0.38
						c0.31,0,0.58-0.14,0.82-0.41c0.23-0.27,0.6-0.68,1.11-1.23c1.09-1.18,2.13-2.12,3.13-2.8c0.99-0.68,2.13-1.02,3.42-1.02
						c1.6,0,3.06,0.46,4.38,1.36c1.32,0.91,2.32,1.96,2.98,3.14c0.2,0.32,0.37,0.61,0.53,0.89c0.16,0.27,0.39,0.41,0.7,0.41
						c0.31,0,0.58-0.14,0.82-0.41c0.23-0.27,0.6-0.68,1.11-1.23c1.13-1.23,2.2-2.23,3.21-3c1.01-0.77,2.2-1.16,3.57-1.16
						c1.91,0,3.69,0.65,5.35,1.94c1.66,1.3,2.99,3.31,4,6.04c1.01,2.73,1.52,6.26,1.52,10.58c0,3-0.25,5.95-0.76,8.84
						c-0.51,2.89-1.18,5.49-2.02,7.81c-0.84,2.32-1.75,4.17-2.75,5.56c-0.99,1.39-1.98,2.08-2.95,2.08c-0.7,0-1.26-0.48-1.67-1.43
						c-0.41-0.96-0.61-2.68-0.61-5.19c0-1.5-0.03-3.09-0.09-4.78c-0.06-1.68-0.23-3.25-0.53-4.71c-0.29-1.46-0.79-2.65-1.49-3.58
						c-0.7-0.93-1.67-1.4-2.92-1.4c-1.13,0-1.98,0.38-2.54,1.13c-0.57,0.75-0.96,1.69-1.2,2.83c-0.23,1.14-0.47,2.3-0.7,3.48
						c-0.39,2.09-0.93,4.19-1.61,6.28c-0.68,2.09-1.5,3.84-2.45,5.25C109.46,104.17,108.38,104.87,107.17,104.87z"/>
					<path class="st4" d="M154.97,104.87c-3.16,0-6.03-1-8.62-3c-2.59-2-4.67-4.82-6.22-8.46c-1.56-3.64-2.34-7.89-2.34-12.76
						c0-6.1,1.35-10.72,4.06-13.89c2.71-3.16,6.96-4.74,12.77-4.74c5.88,0,10.18,1.6,12.89,4.81c2.71,3.21,4.06,7.86,4.06,13.95
						c0,4.82-0.75,9.04-2.25,12.66c-1.5,3.62-3.51,6.43-6.02,8.43C160.79,103.87,158.01,104.87,154.97,104.87z M154.74,99.07
						c1.52,0,2.67-0.68,3.45-2.05c0.78-1.36,1.17-3.32,1.17-5.87c0-2.46-0.39-4.36-1.17-5.7c-0.78-1.34-1.93-2.01-3.45-2.01
						c-1.56,0-2.73,0.67-3.51,2.01c-0.78,1.34-1.17,3.24-1.17,5.7c0,2.55,0.39,4.5,1.17,5.87
						C152.01,98.39,153.18,99.07,154.74,99.07z"/>
					<path class="st4" d="M199.5,104.87c-0.74,0-1.31-0.45-1.72-1.36c-0.41-0.91-0.61-2.62-0.61-5.12c0-1.27-0.02-2.73-0.06-4.37
						c-0.04-1.64-0.2-3.23-0.5-4.78c-0.29-1.55-0.78-2.82-1.46-3.82c-0.68-1-1.67-1.5-2.95-1.5c-1.52,0-2.68,0.55-3.48,1.64
						c-0.8,1.09-1.37,2.48-1.72,4.16c-0.35,1.68-0.62,3.46-0.82,5.32c-0.2,1.87-0.49,3.57-0.88,5.12c-0.31,1.41-0.75,2.55-1.32,3.41
						c-0.57,0.86-1.26,1.3-2.07,1.3c-0.86,0-1.59-0.44-2.19-1.33c-0.6-0.89-1.12-2.15-1.55-3.79c-0.51-2.09-1.02-4.55-1.55-7.37
						c-0.53-2.82-0.96-5.84-1.32-9.08c-0.35-3.23-0.53-6.5-0.53-9.83c0-3.64,0.75-6.46,2.25-8.46c1.5-2,3.26-3,5.29-3
						c1.21,0,2.37,0.35,3.48,1.06c1.11,0.71,2.07,1.79,2.89,3.24c0.19,0.36,0.38,0.67,0.55,0.92c0.18,0.25,0.42,0.38,0.73,0.38
						s0.58-0.17,0.82-0.51c0.23-0.34,0.55-0.76,0.94-1.26c0.9-1.18,1.87-2.12,2.92-2.8c1.05-0.68,2.36-1.02,3.92-1.02
						c1.71,0,3.27,0.61,4.68,1.84c1.4,1.23,2.53,3.07,3.39,5.53s1.29,5.55,1.29,9.28c0,3.68-0.25,7.12-0.76,10.3
						c-0.51,3.18-1.18,5.97-2.02,8.36c-0.84,2.39-1.74,4.24-2.72,5.56C201.45,104.21,200.48,104.87,199.5,104.87z"/>
					<path class="st4" d="M238.83,104.87c-4.13,0-7.44-1.02-9.93-3.07c-2.49-2.05-4.3-5.34-5.41-9.89
						c-1.11-4.55-1.67-10.53-1.67-17.95c0-5,0.26-9.15,0.79-12.45c0.53-3.3,1.41-5.9,2.66-7.81c1.25-1.91,2.92-3.28,5.03-4.09
						c2.1-0.82,4.75-1.23,7.95-1.23c5.18,0,9.79,0.94,13.82,2.83c4.03,1.89,7.21,4.73,9.53,8.53c2.32,3.8,3.48,8.56,3.48,14.29
						c0,3.96-0.59,7.78-1.78,11.46s-2.91,6.98-5.17,9.89c-2.26,2.91-5.01,5.22-8.24,6.93C246.64,104.02,242.96,104.87,238.83,104.87
						z M237.55,97.84c1.79,0,3.4-0.59,4.82-1.77c1.42-1.18,2.55-2.83,3.39-4.95c0.84-2.12,1.26-4.54,1.26-7.27
						c0-3.64-0.76-6.4-2.28-8.29c-1.52-1.89-3.76-2.83-6.72-2.83c-1.99,0-3.48,0.44-4.47,1.33c-0.99,0.89-1.67,2.2-2.02,3.92
						c-0.35,1.73-0.53,3.87-0.53,6.41c0,2.41,0.16,4.64,0.5,6.69c0.33,2.05,0.96,3.68,1.9,4.91
						C234.33,97.23,235.71,97.84,237.55,97.84z"/>
					<path class="st4" d="M275.18,104.87c-0.86,0-1.59-0.45-2.19-1.36c-0.6-0.91-1.12-2.18-1.55-3.82
						c-0.51-2.09-1.02-4.55-1.55-7.37c-0.53-2.82-0.96-5.84-1.32-9.08c-0.35-3.23-0.53-6.5-0.53-9.83c0-3.64,0.75-6.45,2.25-8.43
						c1.5-1.98,3.26-2.97,5.29-2.97c1.21,0,2.37,0.34,3.48,1.02c1.11,0.68,2.07,1.75,2.89,3.21c0.2,0.36,0.38,0.67,0.56,0.92
						c0.17,0.25,0.42,0.38,0.73,0.38c0.31,0,0.57-0.14,0.79-0.41c0.21-0.27,0.54-0.64,0.96-1.09c1.01-1.09,2.05-2.04,3.1-2.83
						c1.05-0.8,2.53-1.19,4.44-1.19c2.06,0,3.78,0.86,5.14,2.59c1.36,1.73,2.05,4.05,2.05,6.96c0,2.14-0.27,4.13-0.82,5.97
						c-0.55,1.84-1.34,3.31-2.4,4.4c-1.05,1.09-2.36,1.64-3.92,1.64c-0.97,0-1.86-0.22-2.66-0.65c-0.8-0.43-1.58-0.86-2.34-1.3
						c-0.76-0.43-1.63-0.65-2.6-0.65c-1.01,0-1.85,0.47-2.51,1.4c-0.66,0.93-1.19,2.14-1.58,3.62c-0.39,1.48-0.7,3.08-0.93,4.81
						c-0.23,1.73-0.45,3.41-0.64,5.05c-0.2,1.64-0.45,3.05-0.76,4.23c-0.31,1.41-0.75,2.56-1.32,3.45
						C276.69,104.43,276,104.87,275.18,104.87z"/>
					<path class="st4" d="M318.66,104.87c-3.16,0-6.03-1-8.62-3c-2.59-2-4.67-4.82-6.22-8.46c-1.56-3.64-2.34-7.89-2.34-12.76
						c0-6.1,1.35-10.72,4.06-13.89c2.71-3.16,6.96-4.74,12.77-4.74c5.88,0,10.18,1.6,12.89,4.81c2.71,3.21,4.06,7.86,4.06,13.95
						c0,4.82-0.75,9.04-2.25,12.66c-1.5,3.62-3.51,6.43-6.02,8.43C324.47,103.87,321.7,104.87,318.66,104.87z M318.42,99.07
						c1.52,0,2.67-0.68,3.45-2.05c0.78-1.36,1.17-3.32,1.17-5.87c0-2.46-0.39-4.36-1.17-5.7c-0.78-1.34-1.93-2.01-3.45-2.01
						c-1.56,0-2.73,0.67-3.51,2.01c-0.78,1.34-1.17,3.24-1.17,5.7c0,2.55,0.39,4.5,1.17,5.87C315.7,98.39,316.87,99.07,318.42,99.07
						z"/>
					<path class="st4" d="M347.18,117.56c-1.4,0-2.44-0.61-3.1-1.84c-0.66-1.23-1.25-2.89-1.75-4.98c-0.43-1.77-0.87-3.92-1.32-6.45
						c-0.45-2.52-0.86-5.24-1.23-8.15c-0.37-2.91-0.67-5.83-0.91-8.77c-0.23-2.93-0.35-5.7-0.35-8.29c0-6.1,0.74-10.46,2.22-13.1
						c1.48-2.64,3.68-3.96,6.6-3.96c3.16,0,5.57,1.52,7.25,4.57c0.19,0.36,0.37,0.65,0.53,0.85c0.15,0.2,0.37,0.31,0.64,0.31
						c0.31,0,0.55-0.11,0.73-0.34c0.18-0.23,0.38-0.52,0.61-0.89c0.94-1.46,2.13-2.57,3.59-3.34c1.46-0.77,3.03-1.16,4.7-1.16
						c1.99,0,3.69,0.49,5.11,1.47c1.42,0.98,2.59,2.29,3.51,3.92c0.91,1.64,1.59,3.47,2.02,5.49c0.43,2.02,0.64,4.11,0.64,6.24
						c0,2.91-0.37,5.87-1.11,8.87c-0.74,3-1.79,5.78-3.16,8.32c-1.36,2.55-2.99,4.61-4.88,6.18c-1.89,1.57-3.98,2.35-6.28,2.35
						c-1.6,0-2.98-0.52-4.15-1.57c-0.39-0.36-0.74-0.68-1.05-0.96c-0.31-0.27-0.64-0.41-0.99-0.41c-0.7,0-1.15,0.43-1.34,1.3
						c-0.27,1.41-0.51,2.65-0.7,3.72c-0.2,1.07-0.47,2.31-0.82,3.72c-0.55,2.23-1.18,3.93-1.9,5.12
						C349.58,116.97,348.54,117.56,347.18,117.56z M357.29,96.07c1.25,0,2.29-0.42,3.13-1.26c0.84-0.84,1.46-1.84,1.87-3
						c0.41-1.16,0.61-2.19,0.61-3.1c0-1.32-0.39-2.4-1.17-3.24c-0.78-0.84-1.97-1.26-3.57-1.26c-1.44,0-2.57,0.44-3.39,1.33
						c-0.82,0.89-1.23,2.47-1.23,4.74c0,1.82,0.3,3.24,0.91,4.26C355.06,95.56,356,96.07,357.29,96.07z"/>
				</g>
			</g>
		</g>
	</g>
</g>
</svg>
