<?xml version="1.0" encoding="utf-8"?>
<!-- Generator: Adobe Illustrator 24.1.2, SVG Export Plug-In . SVG Version: 6.00 Build 0)  -->
<svg version="1.1" id="Layer_2" xmlns="http://www.w3.org/2000/svg" xmlns:xlink="http://www.w3.org/1999/xlink" x="0px" y="0px"
	 viewBox="0 0 262 71" style="enable-background:new 0 0 262 71;" xml:space="preserve">
<style type="text/css">
	.st0{fill:#2A4F6B;}
	.st1{fill:#FFFFFF;}
	.st2{fill:#4894D0;}
	.st3{fill:#FFDF4D;}
</style>
<rect class="st0" width="262" height="71"/>
<g>
	<path class="st1" d="M40.58,52.04c-3.23,0-5.88-0.79-7.89-2.36c-2.09-1.63-3.58-4.04-4.42-7.16c-0.72-2.65-1.08-5.89-1.08-9.64
		c0-3.03,0.19-5.64,0.55-7.78c0.39-2.28,0.92-4.14,1.62-5.67c0.73-1.6,1.59-2.9,2.55-3.85c1-0.99,2.08-1.68,3.2-2.06
		c0.97-0.32,1.92-0.49,2.82-0.49c1.88,0,3.51,0.46,4.83,1.38c1.35,0.93,2.37,2.17,3.04,3.69c0.63,1.42,0.94,2.9,0.94,4.41
		c0,1.38-0.24,2.85-0.74,4.48c-0.41,1.34-0.92,2.76-1.52,4.22c-0.56,1.36-1.15,2.74-1.75,4.11c-0.55,1.24-1.03,2.44-1.43,3.56
		c-0.23,0.66-0.41,1.25-0.53,1.78c0.03,0,0.06,0,0.1,0c0.47,0,0.69-0.06,0.76-0.09l1.42-1.05c1.08-0.8,2.11-1.19,3.14-1.19
		c0.25,0,0.5,0.02,0.75,0.07c1.14,0.23,2.09,0.8,2.83,1.7c0.5,0.6,0.84,1.14,1.07,1.69c0.5,1.21,0.86,3.1-0.16,5.37
		c-0.66,1.47-1.82,2.65-3.43,3.5l-0.06,0.03c-0.92,0.45-1.97,0.79-3.14,1.01C42.96,51.93,41.79,52.04,40.58,52.04z"/>
	<path class="st1" d="M57.9,52.04c-4.3,0-7.62-1.51-9.88-4.5c-2.16-2.85-3.25-6.77-3.25-11.65c0-1.86,0.17-3.64,0.51-5.3
		c0.38-1.84,1.01-3.5,1.88-4.95c0.96-1.59,2.25-2.84,3.82-3.72c1.51-0.83,3.32-1.26,5.37-1.26c2.58,0,4.83,0.57,6.69,1.7
		c1.95,1.18,3.46,2.84,4.48,4.92c1,2.03,1.5,4.3,1.5,6.75c0,1.54-0.31,3.08-0.91,4.57c-0.54,1.32-1.32,2.51-2.33,3.56
		c0.06,0.14,0.13,0.28,0.18,0.43c0.65,1.63,0.58,3.47-0.22,5.17c-0.65,1.39-1.59,2.42-2.79,3.06c-0.64,0.34-1.32,0.62-2.01,0.84
		C60.15,51.91,59.15,52.04,57.9,52.04z"/>
	<path class="st1" d="M91.53,52.04c-1.6,0-3.02-1.07-3.79-2.86c-0.41-0.94-0.62-2.12-0.67-3.74c-0.01,0.03-0.02,0.05-0.03,0.08
		c-0.5,1.52-1.12,2.84-1.85,3.92c-1.14,1.67-2.67,2.6-4.32,2.6c-1.45,0-2.76-0.74-3.58-2.02c-0.55-0.85-0.9-1.88-1.06-3.05
		c0-0.03-0.01-0.06-0.01-0.09c-0.3,1.27-0.69,2.23-1.21,2.99c-0.73,1.06-1.59,1.73-2.54,1.98c-0.5,0.13-0.88,0.19-1.23,0.19
		c-1.53,0-2.94-0.93-3.85-2.56c-0.46-0.83-0.86-1.79-1.19-2.85c-0.27-0.9-0.52-2.01-0.76-3.31c-0.23-1.22-0.44-2.55-0.64-3.92
		c-0.19-1.38-0.36-2.76-0.48-4.08c-0.13-1.4-0.2-2.67-0.2-3.76c0-3.35,0.6-5.87,1.84-7.72c1.37-2.04,3.32-3.17,5.51-3.17
		c1.27,0,2.47,0.35,3.56,1.03c0.36,0.22,0.7,0.48,1.02,0.78c0.31-0.27,0.63-0.51,0.93-0.72c1.05-0.72,2.24-1.09,3.53-1.09
		c1.47,0,2.83,0.43,4.07,1.28c0.34,0.23,0.65,0.48,0.95,0.74c0.31-0.28,0.61-0.53,0.91-0.76c1.09-0.83,2.35-1.26,3.74-1.26
		c1.71,0,3.31,0.58,4.77,1.72c1.44,1.12,2.58,2.8,3.39,4.98c0.74,1.99,1.11,4.48,1.11,7.39c0,1.91-0.16,3.83-0.49,5.68
		c-0.32,1.85-0.77,3.55-1.31,5.06c-0.6,1.66-1.26,2.98-2.03,4.05C94.15,51.6,92.59,52.04,91.53,52.04z"/>
	<path class="st1" d="M107.61,52.04c-2.4,0-4.61-0.77-6.58-2.3c-1.91-1.48-3.45-3.55-4.58-6.17c-1.09-2.54-1.64-5.5-1.64-8.79
		c0-4.41,1.08-7.91,3.21-10.39c2.13-2.48,5.29-3.74,9.4-3.74c4.16,0,7.35,1.28,9.48,3.8c2.12,2.5,3.19,6.01,3.19,10.41
		c0,3.25-0.53,6.17-1.58,8.69c-1.08,2.6-2.58,4.68-4.44,6.16C112.13,51.25,109.96,52.04,107.61,52.04z"/>
	<path class="st1" d="M132.52,52.04c-1.6,0-3.01-1.03-3.79-2.75c-0.47-1.05-0.69-2.41-0.71-4.38c-0.1,0.62-0.22,1.21-0.36,1.77
		c-0.28,1.24-0.71,2.31-1.27,3.17c-0.93,1.41-2.24,2.19-3.7,2.19c-1.46,0-2.78-0.76-3.73-2.15c-0.59-0.87-1.06-1.96-1.42-3.34
		c-0.31-1.29-0.62-2.76-0.93-4.41c-0.31-1.67-0.58-3.49-0.78-5.39c-0.21-1.95-0.32-3.96-0.32-5.96c0-2.95,0.69-5.37,2.05-7.18
		c1.45-1.93,3.3-2.95,5.36-2.95c1.21,0,2.38,0.35,3.47,1.04c0.32,0.21,0.63,0.44,0.93,0.71c0.31-0.26,0.62-0.5,0.95-0.71
		c1.06-0.69,2.32-1.04,3.74-1.04c1.66,0,3.19,0.6,4.53,1.77c1.25,1.09,2.24,2.66,2.94,4.66c0.63,1.81,0.96,4.03,0.96,6.59
		c0,2.27-0.16,4.44-0.48,6.43c-0.32,2.02-0.76,3.84-1.31,5.4c-0.61,1.73-1.28,3.07-2.06,4.13
		C135.11,51.62,133.56,52.04,132.52,52.04z"/>
	<path class="st1" d="M154.52,52.04c-2.97,0-5.46-0.8-7.39-2.39c-2-1.64-3.43-4.18-4.26-7.55c-0.7-2.86-1.05-6.58-1.05-11.04
		c0-3.01,0.17-5.58,0.49-7.64c0.39-2.41,1.09-4.41,2.09-5.94c1.09-1.67,2.55-2.86,4.34-3.56c1.52-0.59,3.3-0.88,5.46-0.88
		c3.29,0,6.29,0.62,8.92,1.85c2.82,1.32,5.09,3.36,6.74,6.06c1.68,2.76,2.54,6.17,2.54,10.14c0,2.65-0.4,5.24-1.2,7.71
		c-0.8,2.49-1.99,4.75-3.51,6.71c-1.55,2-3.46,3.6-5.66,4.76C159.79,51.45,157.27,52.04,154.52,52.04z M153.8,40.66
		c0.34,0,0.59-0.09,0.84-0.3c0.34-0.28,0.61-0.7,0.85-1.29c0.27-0.68,0.41-1.52,0.41-2.49c0-1.42-0.29-1.93-0.41-2.08
		c-0.21-0.26-0.72-0.41-1.43-0.41c-0.23,0-0.4,0.02-0.51,0.04c0,0.01,0,0.02-0.01,0.03c-0.14,0.67-0.21,1.61-0.21,2.72
		c0,1.11,0.07,2.13,0.22,3.04c0.06,0.35,0.13,0.59,0.19,0.74C153.76,40.66,153.78,40.66,153.8,40.66z"/>
	<path class="st1" d="M174.85,52.04c-1.47,0-2.81-0.78-3.75-2.2c-0.58-0.88-1.04-1.96-1.4-3.33c-0.32-1.3-0.63-2.77-0.93-4.41
		c-0.31-1.68-0.58-3.49-0.78-5.39c-0.21-1.95-0.32-3.95-0.32-5.96c0-2.96,0.69-5.37,2.06-7.17c1.45-1.91,3.3-2.91,5.35-2.91
		c1.2,0,2.35,0.34,3.43,1c0.39,0.24,0.76,0.52,1.1,0.84c0.24-0.2,0.48-0.4,0.72-0.58c1.13-0.85,2.51-1.27,4.22-1.27
		c2.05,0,3.86,0.92,5.22,2.65c1.32,1.67,1.99,3.83,1.99,6.41c0,1.6-0.21,3.13-0.63,4.55c-0.49,1.64-1.24,2.99-2.24,4.03
		c-1.19,1.23-2.64,1.85-4.31,1.85c-1.01,0-1.96-0.24-2.83-0.71c-0.24-0.13-0.47-0.25-0.7-0.38c-0.15,0.61-0.28,1.27-0.37,1.99
		c-0.13,0.94-0.24,1.86-0.35,2.75c-0.13,1.08-0.3,2.04-0.51,2.87c-0.28,1.22-0.7,2.27-1.25,3.13
		C177.66,51.22,176.3,52.04,174.85,52.04z"/>
	<path class="st1" d="M199.17,52.04c-2.39,0-4.61-0.77-6.58-2.29c-1.91-1.48-3.45-3.55-4.58-6.17c-1.09-2.54-1.64-5.5-1.64-8.79
		c0-4.41,1.08-7.91,3.21-10.39c2.13-2.48,5.29-3.74,9.4-3.74c4.16,0,7.35,1.28,9.48,3.8c2.12,2.5,3.19,6.01,3.19,10.41
		c0,3.24-0.53,6.17-1.58,8.69c-1.08,2.6-2.58,4.68-4.44,6.16C203.68,51.25,201.51,52.04,199.17,52.04z"/>
	<path class="st1" d="M215.12,59.13c-1.87,0-3.49-1.01-4.44-2.77c-0.54-1-0.98-2.23-1.35-3.75c-0.26-1.07-0.52-2.37-0.79-3.86
		c-0.26-1.48-0.5-3.08-0.72-4.76c-0.21-1.68-0.39-3.39-0.53-5.1c-0.14-1.74-0.21-3.42-0.21-4.98c0-4.18,0.58-7.25,1.76-9.36
		c1.41-2.51,3.67-3.89,6.36-3.89c1.85,0,3.5,0.63,4.84,1.84c0.41-0.33,0.84-0.61,1.3-0.85c1.23-0.65,2.56-0.98,3.95-0.98
		c1.68,0,3.19,0.45,4.48,1.33c1.22,0.84,2.24,1.97,3.02,3.36c0.71,1.26,1.23,2.68,1.55,4.21c0.3,1.42,0.45,2.89,0.45,4.38
		c0,1.96-0.25,3.98-0.75,5.98c-0.49,2-1.21,3.88-2.13,5.59c-0.98,1.83-2.19,3.35-3.59,4.51c-1.6,1.33-3.41,2-5.37,2
		c-0.63,0-1.23-0.09-1.81-0.25c-0.06,0.26-0.12,0.53-0.19,0.81c-0.41,1.66-0.91,2.96-1.53,3.98
		C218.46,58.22,216.91,59.13,215.12,59.13z"/>
	<path class="st2" d="M40.58,50.18c-2.9,0-5.26-0.69-7-2.05c-1.78-1.39-3.06-3.47-3.79-6.17c-0.67-2.47-1.01-5.52-1.01-9.08
		c0-2.9,0.18-5.4,0.52-7.42c0.36-2.1,0.84-3.79,1.46-5.16c0.64-1.4,1.37-2.51,2.17-3.31c0.83-0.82,1.7-1.39,2.61-1.69
		c0.83-0.27,1.63-0.41,2.38-0.41c1.59,0,2.94,0.38,4.02,1.12c1.09,0.75,1.91,1.74,2.44,2.94c0.51,1.15,0.77,2.35,0.77,3.56
		c0,1.16-0.21,2.43-0.65,3.86c-0.39,1.28-0.88,2.64-1.46,4.03c-0.56,1.35-1.14,2.72-1.73,4.06c-0.57,1.28-1.07,2.53-1.48,3.69
		c-0.38,1.08-0.64,2.04-0.75,2.85c-0.06,0.44-0.04,0.78,0.05,0.95c0.07,0.1,0.19,0.23,0.47,0.33c0.4,0.15,0.83,0.22,1.27,0.22
		c0.96,0,1.39-0.21,1.56-0.34l1.47-1.09c0.82-0.6,1.57-0.9,2.29-0.9c0.16,0,0.33,0.02,0.48,0.05c0.79,0.16,1.44,0.55,1.95,1.16
		c0.38,0.46,0.64,0.86,0.8,1.24c0.34,0.82,0.57,2.08-0.15,3.66c-0.49,1.09-1.4,2-2.68,2.68L46.55,49c-0.79,0.38-1.71,0.68-2.76,0.88
		C42.78,50.08,41.7,50.18,40.58,50.18z"/>
	<path class="st2" d="M57.9,50.18c-3.82,0-6.74-1.3-8.68-3.87c-1.89-2.5-2.85-6-2.85-10.42c0-1.71,0.16-3.35,0.47-4.87
		c0.33-1.61,0.88-3.06,1.64-4.32c0.8-1.33,1.88-2.37,3.2-3.11c1.29-0.71,2.87-1.08,4.69-1.08c2.32,0,4.32,0.5,5.95,1.49
		c1.68,1.01,2.97,2.43,3.84,4.19c0.86,1.74,1.29,3.7,1.29,5.82c0,1.26-0.26,2.53-0.76,3.77c-0.51,1.24-1.29,2.36-2.32,3.34
		c-0.27,0.26-0.56,0.5-0.87,0.73c0.44,0.35,0.79,0.86,1.03,1.5c0.44,1.09,0.38,2.33-0.17,3.51c-0.48,1.03-1.17,1.79-2.06,2.26
		c-0.56,0.3-1.15,0.54-1.75,0.74C59.87,50.07,59.01,50.18,57.9,50.18z M55.98,37.09c0.03,0.01,0.09,0.02,0.18,0.02
		c0.04,0,0.06,0,0.11-0.06c0.18-0.19,0.33-0.41,0.45-0.67c0.12-0.28,0.13-0.43,0.13-0.46c0-0.13-0.01-0.21-0.02-0.26
		c-0.06-0.02-0.19-0.05-0.41-0.05c-0.17,0-0.26,0.02-0.29,0.04c-0.03,0.03-0.05,0.08-0.07,0.16c-0.07,0.32-0.1,0.67-0.1,1.03
		C55.97,36.96,55.97,37.05,55.98,37.09z"/>
	<path class="st2" d="M91.53,50.18c-1,0-1.86-0.67-2.36-1.83c-0.35-0.81-0.51-2-0.51-3.73c0-0.81-0.02-1.68-0.05-2.59
		c-0.03-0.82-0.11-1.58-0.25-2.28c-0.1-0.51-0.26-0.91-0.48-1.2c-0.04-0.05-0.11-0.15-0.43-0.15c-0.14,0-0.21,0.02-0.25,0.03
		c-0.13,0.19-0.23,0.44-0.29,0.75c-0.13,0.63-0.26,1.27-0.39,1.93c-0.23,1.23-0.55,2.5-0.96,3.75c-0.44,1.34-0.98,2.5-1.61,3.43
		c-1.06,1.56-2.25,1.89-3.07,1.89c-0.96,0-1.78-0.45-2.31-1.28c-0.39-0.6-0.64-1.35-0.76-2.22c-0.09-0.66-0.13-1.35-0.13-2.06
		c0-0.86-0.02-1.76-0.05-2.69c-0.03-0.82-0.12-1.57-0.26-2.25c-0.11-0.49-0.27-0.88-0.48-1.14c-0.09-0.12-0.32-0.14-0.49-0.14
		c-0.18,0-0.4,0.03-0.46,0.12c-0.21,0.33-0.36,0.8-0.45,1.41c-0.12,0.86-0.22,1.79-0.28,2.76c-0.07,1.14-0.22,2.24-0.44,3.25
		c-0.25,1.24-0.57,2.13-1.01,2.76c-0.51,0.74-1.05,1.17-1.66,1.33c-0.37,0.1-0.64,0.14-0.88,0.14c-0.58,0-1.68-0.22-2.51-1.72
		c-0.39-0.71-0.74-1.53-1.02-2.45c-0.24-0.82-0.48-1.86-0.71-3.09c-0.22-1.19-0.43-2.48-0.62-3.83c-0.19-1.35-0.35-2.69-0.47-3.98
		c-0.13-1.33-0.19-2.53-0.19-3.56c0-2.92,0.49-5.07,1.5-6.58c1.07-1.6,2.54-2.45,4.25-2.45c1,0,1.95,0.27,2.81,0.81
		c0.65,0.4,1.21,0.94,1.69,1.61c0.62-0.65,1.24-1.19,1.83-1.6c0.8-0.55,1.72-0.83,2.72-0.83c1.18,0,2.27,0.34,3.26,1.02
		c0.69,0.47,1.26,1.01,1.72,1.61c0.63-0.67,1.24-1.23,1.83-1.68c0.83-0.63,1.79-0.95,2.87-0.95c1.38,0,2.69,0.47,3.88,1.4
		c1.18,0.92,2.13,2.33,2.82,4.18c0.65,1.75,0.98,3.99,0.98,6.65c0,1.79-0.15,3.58-0.46,5.31c-0.3,1.73-0.71,3.31-1.22,4.71
		c-0.54,1.48-1.12,2.65-1.78,3.58C93.54,49.56,92.57,50.18,91.53,50.18z"/>
	<path class="st2" d="M107.61,50.18c-2.08,0-4-0.67-5.7-1.99c-1.68-1.29-3.03-3.13-4.03-5.45c-0.98-2.28-1.48-4.96-1.48-7.96
		c0-3.9,0.92-6.95,2.74-9.07c1.82-2.12,4.6-3.19,8.27-3.19c3.72,0,6.53,1.09,8.34,3.24c1.81,2.14,2.73,5.21,2.73,9.1
		c0,2.96-0.48,5.62-1.42,7.88c-0.96,2.31-2.27,4.14-3.9,5.43C111.5,49.5,109.63,50.18,107.61,50.18z M107.48,38.21
		c-0.46,0-0.56,0.18-0.64,0.31c-0.17,0.3-0.38,0.91-0.38,2.14c0,1.3,0.21,1.94,0.39,2.24c0.08,0.14,0.18,0.31,0.63,0.31
		c0.39,0,0.5-0.14,0.6-0.32c0.25-0.43,0.38-1.23,0.38-2.24c0-1.23-0.21-1.84-0.38-2.14C107.99,38.35,107.88,38.21,107.48,38.21z"/>
	<path class="st2" d="M132.52,50.18c-1.01,0-1.87-0.64-2.38-1.76c-0.36-0.81-0.53-1.96-0.53-3.72c0-0.68-0.01-1.47-0.03-2.39
		c-0.02-0.79-0.1-1.58-0.24-2.32c-0.11-0.58-0.28-1.04-0.51-1.38c-0.03-0.04-0.09-0.14-0.4-0.14c-0.54,0-0.68,0.19-0.73,0.26
		c-0.28,0.38-0.49,0.91-0.63,1.56c-0.18,0.87-0.32,1.8-0.42,2.76c-0.12,1.13-0.3,2.18-0.54,3.13c-0.23,1.01-0.56,1.87-1,2.54
		c-0.62,0.94-1.48,1.46-2.43,1.46c-0.98,0-1.83-0.5-2.48-1.45c-0.47-0.68-0.84-1.58-1.14-2.73c-0.3-1.24-0.6-2.66-0.9-4.26
		c-0.3-1.62-0.56-3.38-0.76-5.23c-0.2-1.87-0.31-3.8-0.31-5.72c0-2.49,0.56-4.49,1.65-5.95c1.14-1.51,2.57-2.31,4.16-2.31
		c0.94,0,1.85,0.27,2.71,0.82c0.61,0.39,1.16,0.92,1.65,1.58c0.54-0.64,1.13-1.18,1.77-1.59c0.82-0.53,1.82-0.81,2.96-0.81
		c1.31,0,2.51,0.47,3.57,1.4c1.01,0.89,1.83,2.19,2.42,3.87c0.56,1.59,0.84,3.57,0.84,5.89c0,2.16-0.15,4.21-0.45,6.09
		c-0.3,1.9-0.71,3.59-1.22,5.03c-0.54,1.54-1.13,2.72-1.79,3.62C134.5,49.59,133.55,50.18,132.52,50.18z"/>
	<path class="st2" d="M154.52,50.18c-2.63,0-4.81-0.69-6.47-2.05c-1.7-1.39-2.92-3.59-3.64-6.54c-0.66-2.7-0.99-6.24-0.99-10.53
		c0-2.89,0.16-5.35,0.47-7.3c0.34-2.12,0.94-3.86,1.79-5.15c0.89-1.36,2.09-2.35,3.58-2.92c1.35-0.53,2.97-0.78,4.95-0.78
		c3.09,0,5.89,0.58,8.32,1.72c2.53,1.18,4.56,3,6.03,5.41c1.49,2.43,2.24,5.48,2.24,9.06c0,2.42-0.37,4.8-1.1,7.06
		c-0.73,2.27-1.81,4.33-3.2,6.12c-1.41,1.81-3.13,3.26-5.13,4.31C159.34,49.64,157.04,50.18,154.52,50.18z M154.06,32.23
		c-1.02,0-1.41,0.25-1.53,0.36c-0.26,0.23-0.43,0.6-0.54,1.14c-0.17,0.82-0.25,1.88-0.25,3.15c0,1.23,0.08,2.37,0.25,3.39
		c0.13,0.8,0.36,1.42,0.69,1.85c0.08,0.1,0.31,0.4,1.13,0.4c0.67,0,1.25-0.21,1.77-0.65c0.57-0.47,1.02-1.14,1.37-2.03
		c0.37-0.93,0.56-2.03,0.56-3.28c0-1.53-0.28-2.66-0.84-3.36C156.12,32.55,155.27,32.23,154.06,32.23z"/>
	<path class="st2" d="M174.85,50.18c-0.97,0-1.85-0.53-2.49-1.48c-0.46-0.69-0.83-1.59-1.13-2.73c-0.3-1.23-0.6-2.65-0.9-4.26
		c-0.3-1.62-0.56-3.38-0.76-5.23c-0.2-1.87-0.31-3.8-0.31-5.72c0-2.49,0.56-4.49,1.66-5.94c1.13-1.49,2.57-2.29,4.15-2.29
		c0.93,0,1.84,0.26,2.69,0.79c0.65,0.4,1.24,0.97,1.75,1.69c0.55-0.56,1.12-1.07,1.69-1.51c0.86-0.65,1.96-0.97,3.35-0.97
		c1.59,0,2.99,0.71,4.05,2.05c1.04,1.32,1.57,3.05,1.57,5.15c0,1.39-0.18,2.72-0.55,3.94c-0.4,1.33-1,2.42-1.79,3.24
		c-0.89,0.92-1.98,1.38-3.25,1.38c-0.78,0-1.5-0.18-2.16-0.54c-0.45-0.25-0.9-0.49-1.34-0.74c-0.2-0.11-0.46-0.17-0.75-0.17
		c-0.08,0-0.1,0-0.18,0.11c-0.23,0.33-0.43,0.79-0.59,1.38c-0.19,0.74-0.35,1.56-0.47,2.43c-0.13,0.95-0.25,1.88-0.36,2.78
		c-0.12,0.99-0.28,1.87-0.47,2.61c-0.23,1-0.56,1.85-0.99,2.53C176.67,49.64,175.81,50.18,174.85,50.18z"/>
	<path class="st2" d="M199.17,50.18c-2.08,0-3.99-0.67-5.7-1.99c-1.68-1.29-3.03-3.13-4.03-5.45c-0.98-2.28-1.48-4.96-1.48-7.96
		c0-3.9,0.92-6.95,2.74-9.07c1.82-2.12,4.6-3.19,8.27-3.19c3.72,0,6.53,1.09,8.34,3.24c1.81,2.14,2.73,5.21,2.73,9.1
		c0,2.96-0.48,5.61-1.42,7.88c-0.96,2.31-2.27,4.14-3.9,5.43C203.06,49.5,201.19,50.18,199.17,50.18z M199.04,38.21
		c-0.46,0-0.56,0.18-0.64,0.31c-0.17,0.3-0.38,0.91-0.38,2.14c0,1.3,0.21,1.94,0.39,2.24c0.08,0.14,0.18,0.32,0.63,0.32
		c0.39,0,0.5-0.14,0.6-0.31c0.18-0.31,0.39-0.95,0.39-2.24c0-1.23-0.21-1.84-0.38-2.14C199.54,38.35,199.43,38.21,199.04,38.21z"/>
	<path class="st2" d="M215.12,57.26c-1.33,0-2.42-0.67-3.08-1.9c-0.46-0.85-0.84-1.91-1.17-3.27c-0.25-1.03-0.51-2.28-0.76-3.73
		c-0.26-1.45-0.49-3.02-0.7-4.66c-0.21-1.64-0.38-3.32-0.52-5c-0.13-1.69-0.2-3.3-0.2-4.8c0-3.81,0.49-6.54,1.5-8.34
		c1.12-2,2.86-3.05,5.03-3.05c1.95,0,3.58,0.84,4.78,2.45c0.58-0.68,1.26-1.23,2.03-1.63c1.02-0.54,2.13-0.81,3.29-0.81
		c1.39,0,2.63,0.36,3.67,1.08c1.01,0.69,1.84,1.63,2.49,2.78c0.61,1.09,1.06,2.31,1.34,3.64c0.27,1.27,0.41,2.6,0.41,3.93
		c0,1.79-0.23,3.63-0.68,5.47c-0.45,1.84-1.11,3.56-1.95,5.12c-0.87,1.62-1.93,2.96-3.16,3.98c-1.33,1.1-2.82,1.66-4.44,1.66
		c-1.09,0-2.07-0.32-2.93-0.96c-0.04,0.23-0.08,0.44-0.12,0.65c-0.12,0.64-0.28,1.39-0.49,2.21c-0.36,1.46-0.78,2.58-1.29,3.42
		C217.46,56.65,216.4,57.26,215.12,57.26z M220.45,38.87c0,0-0.18,0.29-0.18,1.28c0,0.85,0.16,1.21,0.22,1.32
		c0,0.01,0.07,0.05,0.27,0.05c0.4,0,0.59-0.14,0.71-0.25c0.28-0.28,0.48-0.6,0.61-0.97c0.18-0.52,0.22-0.85,0.22-1.02
		c0-0.27-0.06-0.36-0.14-0.44c-0.02-0.02-0.21-0.21-0.91-0.21C220.87,38.63,220.6,38.71,220.45,38.87L220.45,38.87z"/>
	<g>
		<g>
			<path class="st3" d="M40.58,48.31c-2.59,0-4.63-0.58-6.11-1.73c-1.48-1.16-2.53-2.88-3.15-5.18c-0.62-2.3-0.93-5.14-0.93-8.52
				c0-2.79,0.16-5.14,0.49-7.05c0.33-1.91,0.76-3.45,1.31-4.65c0.54-1.19,1.14-2.11,1.8-2.76c0.65-0.65,1.32-1.09,2.01-1.31
				c0.69-0.23,1.33-0.34,1.94-0.34c1.31,0,2.37,0.29,3.2,0.86c0.83,0.57,1.44,1.3,1.83,2.19c0.39,0.89,0.59,1.79,0.59,2.71
				c0,0.94-0.19,2.02-0.56,3.24c-0.37,1.22-0.83,2.5-1.39,3.85c-0.56,1.35-1.13,2.69-1.72,4.02c-0.59,1.33-1.1,2.61-1.54,3.83
				c-0.44,1.22-0.72,2.31-0.85,3.28c-0.13,0.97-0.02,1.74,0.33,2.32c0.3,0.48,0.74,0.83,1.29,1.03c0.56,0.2,1.14,0.3,1.75,0.3
				c1.05,0,1.85-0.21,2.42-0.63c0.57-0.42,1.06-0.78,1.47-1.09c0.65-0.48,1.2-0.68,1.65-0.59c0.45,0.09,0.8,0.29,1.06,0.61
				c0.26,0.32,0.44,0.58,0.52,0.78c0.24,0.58,0.2,1.24-0.13,1.96c-0.33,0.72-0.97,1.34-1.93,1.85c-0.68,0.33-1.48,0.58-2.4,0.76
				C42.61,48.22,41.62,48.31,40.58,48.31z"/>
			<path class="st3" d="M57.9,48.31c-3.36,0-5.85-1.08-7.49-3.24c-1.63-2.16-2.45-5.22-2.45-9.18c0-1.57,0.14-3.05,0.42-4.44
				c0.28-1.38,0.75-2.61,1.39-3.68c0.64-1.07,1.5-1.9,2.58-2.5c1.08-0.6,2.41-0.9,4-0.9c2.07,0,3.81,0.43,5.21,1.28
				c1.41,0.85,2.47,2.01,3.19,3.47c0.72,1.46,1.08,3.09,1.08,4.9c0,0.99-0.2,1.98-0.6,2.97c-0.4,0.99-1.03,1.89-1.88,2.69
				c-0.85,0.8-1.92,1.45-3.22,1.94c-1.3,0.5-2.85,0.74-4.66,0.74c-0.48,0-0.81,0.08-0.98,0.23c-0.17,0.15-0.26,0.37-0.26,0.65
				c0,0.58,0.22,0.99,0.65,1.22c0.44,0.23,0.95,0.34,1.54,0.34c0.59,0,1.09-0.03,1.5-0.08c0.5-0.05,0.98-0.16,1.42-0.34
				c0.45-0.18,0.93-0.47,1.45-0.88c0.37-0.3,0.79-0.42,1.26-0.34c0.47,0.08,0.8,0.39,1,0.95c0.24,0.56,0.2,1.18-0.11,1.85
				c-0.32,0.67-0.76,1.16-1.32,1.47c-0.48,0.25-0.98,0.46-1.5,0.63C59.6,48.23,58.86,48.31,57.9,48.31z M56.17,38.98
				c0.44,0,0.82-0.17,1.16-0.51c0.34-0.34,0.61-0.75,0.82-1.22c0.21-0.47,0.31-0.91,0.31-1.31c0-1.45-0.68-2.17-2.03-2.17
				c-0.57,0-1,0.15-1.31,0.46c-0.31,0.3-0.51,0.69-0.6,1.16c-0.1,0.47-0.15,0.96-0.15,1.47c0,0.71,0.16,1.25,0.49,1.6
				C55.19,38.8,55.62,38.98,56.17,38.98z"/>
			<path class="st3" d="M80.88,48.31c-0.46,0-0.8-0.18-1.03-0.53c-0.23-0.36-0.38-0.82-0.46-1.39s-0.11-1.16-0.11-1.77
				c0-0.89-0.02-1.81-0.05-2.76c-0.03-0.95-0.14-1.83-0.31-2.63c-0.17-0.8-0.46-1.45-0.85-1.94c-0.39-0.5-0.95-0.74-1.67-0.74
				c-0.78,0-1.36,0.29-1.73,0.86c-0.37,0.57-0.62,1.31-0.75,2.23c-0.13,0.91-0.23,1.89-0.29,2.93c-0.07,1.04-0.2,2.02-0.39,2.93
				c-0.2,0.97-0.43,1.65-0.7,2.04c-0.27,0.39-0.53,0.62-0.77,0.69c-0.24,0.06-0.41,0.1-0.52,0.1c-0.46,0-0.85-0.29-1.18-0.88
				c-0.33-0.58-0.61-1.27-0.85-2.06c-0.22-0.74-0.44-1.69-0.65-2.86c-0.22-1.17-0.42-2.41-0.6-3.73c-0.19-1.32-0.34-2.62-0.46-3.89
				c-0.12-1.27-0.18-2.39-0.18-3.35c0-2.46,0.39-4.27,1.16-5.43c0.77-1.16,1.77-1.73,2.99-1.73c0.74,0,1.43,0.2,2.06,0.59
				c0.63,0.39,1.15,0.97,1.57,1.73c0.11,0.2,0.21,0.38,0.31,0.51c0.1,0.14,0.22,0.21,0.38,0.21c0.17,0,0.33-0.08,0.46-0.23
				c0.13-0.15,0.34-0.38,0.62-0.69c0.61-0.66,1.19-1.18,1.75-1.56c0.56-0.38,1.19-0.57,1.91-0.57c0.89,0,1.71,0.25,2.45,0.76
				c0.74,0.51,1.3,1.09,1.67,1.75c0.11,0.18,0.21,0.34,0.29,0.5c0.09,0.15,0.22,0.23,0.39,0.23c0.17,0,0.33-0.08,0.46-0.23
				c0.13-0.15,0.34-0.38,0.62-0.69c0.63-0.69,1.23-1.24,1.8-1.68c0.57-0.43,1.23-0.65,1.99-0.65c1.07,0,2.06,0.36,2.99,1.09
				c0.93,0.72,1.67,1.85,2.24,3.37c0.57,1.52,0.85,3.49,0.85,5.91c0,1.68-0.14,3.32-0.42,4.93c-0.28,1.61-0.66,3.07-1.13,4.36
				c-0.47,1.3-0.98,2.33-1.54,3.11c-0.56,0.77-1.11,1.16-1.65,1.16c-0.39,0-0.7-0.27-0.93-0.8c-0.23-0.53-0.34-1.5-0.34-2.9
				c0-0.84-0.02-1.73-0.05-2.67c-0.03-0.94-0.13-1.82-0.29-2.63c-0.16-0.81-0.44-1.48-0.83-2c-0.39-0.52-0.94-0.78-1.63-0.78
				c-0.63,0-1.11,0.21-1.42,0.63c-0.32,0.42-0.54,0.95-0.67,1.58c-0.13,0.64-0.26,1.28-0.39,1.94c-0.22,1.17-0.52,2.34-0.9,3.51
				c-0.38,1.17-0.84,2.15-1.37,2.93C82.16,47.92,81.55,48.31,80.88,48.31z"/>
			<path class="st3" d="M107.61,48.31c-1.76,0-3.37-0.56-4.82-1.68c-1.45-1.12-2.61-2.69-3.48-4.73C98.44,39.88,98,37.5,98,34.79
				c0-3.4,0.76-5.99,2.27-7.76c1.51-1.77,3.89-2.65,7.14-2.65c3.29,0,5.69,0.9,7.21,2.69c1.51,1.79,2.27,4.39,2.27,7.79
				c0,2.69-0.42,5.05-1.26,7.07c-0.84,2.02-1.96,3.59-3.37,4.71C110.87,47.75,109.31,48.31,107.61,48.31z M107.48,45.07
				c0.85,0,1.49-0.38,1.93-1.14c0.44-0.76,0.65-1.85,0.65-3.28c0-1.37-0.22-2.43-0.65-3.18c-0.44-0.75-1.08-1.12-1.93-1.12
				c-0.87,0-1.53,0.37-1.96,1.12c-0.44,0.75-0.65,1.81-0.65,3.18c0,1.42,0.22,2.52,0.65,3.28
				C105.96,44.69,106.61,45.07,107.48,45.07z"/>
			<path class="st3" d="M132.52,48.31c-0.41,0-0.74-0.25-0.96-0.76c-0.23-0.51-0.34-1.46-0.34-2.86c0-0.71-0.01-1.52-0.03-2.44
				c-0.02-0.91-0.11-1.8-0.28-2.67c-0.16-0.86-0.44-1.57-0.82-2.13c-0.38-0.56-0.93-0.84-1.65-0.84c-0.85,0-1.5,0.3-1.94,0.91
				c-0.45,0.61-0.77,1.38-0.96,2.32c-0.2,0.94-0.35,1.93-0.46,2.97c-0.11,1.04-0.27,1.99-0.49,2.86c-0.17,0.79-0.42,1.42-0.74,1.91
				c-0.32,0.48-0.7,0.72-1.16,0.72c-0.48,0-0.89-0.25-1.23-0.74c-0.34-0.5-0.63-1.2-0.87-2.11c-0.28-1.17-0.57-2.54-0.87-4.12
				c-0.29-1.57-0.54-3.26-0.74-5.07c-0.2-1.8-0.29-3.63-0.29-5.49c0-2.03,0.42-3.61,1.26-4.73c0.84-1.12,1.82-1.68,2.96-1.68
				c0.68,0,1.32,0.2,1.94,0.59c0.62,0.39,1.16,1,1.62,1.81c0.11,0.2,0.21,0.37,0.31,0.51c0.1,0.14,0.23,0.21,0.41,0.21
				s0.33-0.1,0.46-0.29c0.13-0.19,0.3-0.43,0.52-0.7c0.5-0.66,1.05-1.18,1.63-1.56c0.59-0.38,1.32-0.57,2.19-0.57
				c0.96,0,1.83,0.34,2.61,1.03s1.42,1.71,1.9,3.09c0.48,1.37,0.72,3.1,0.72,5.18c0,2.06-0.14,3.98-0.42,5.75
				c-0.28,1.78-0.66,3.33-1.13,4.67c-0.47,1.33-0.98,2.37-1.52,3.11C133.61,47.94,133.06,48.31,132.52,48.31z"/>
			<path class="st3" d="M154.52,48.31c-2.31,0-4.16-0.57-5.56-1.71c-1.39-1.14-2.4-2.98-3.02-5.53c-0.62-2.54-0.93-5.88-0.93-10.02
				c0-2.79,0.15-5.11,0.44-6.95c0.29-1.84,0.79-3.3,1.49-4.36c0.7-1.07,1.63-1.83,2.81-2.29c1.18-0.46,2.66-0.69,4.45-0.69
				c2.9,0,5.47,0.53,7.73,1.58c2.25,1.05,4.03,2.64,5.33,4.76c1.3,2.12,1.95,4.78,1.95,7.98c0,2.21-0.33,4.34-1,6.4
				c-0.66,2.06-1.63,3.9-2.89,5.53c-1.26,1.63-2.8,2.92-4.61,3.87C158.89,47.84,156.83,48.31,154.52,48.31z M153.8,44.39
				c1,0,1.9-0.33,2.7-0.99c0.8-0.66,1.43-1.58,1.9-2.76c0.47-1.18,0.7-2.53,0.7-4.06c0-2.03-0.42-3.58-1.27-4.63
				c-0.85-1.05-2.1-1.58-3.76-1.58c-1.11,0-1.94,0.25-2.5,0.74c-0.56,0.5-0.93,1.23-1.13,2.19c-0.2,0.97-0.29,2.16-0.29,3.58
				c0,1.35,0.09,2.59,0.28,3.73c0.18,1.14,0.54,2.06,1.06,2.74C152,44.05,152.77,44.39,153.8,44.39z"/>
			<path class="st3" d="M174.85,48.31c-0.48,0-0.89-0.25-1.23-0.76c-0.34-0.51-0.63-1.22-0.87-2.13c-0.28-1.17-0.57-2.54-0.87-4.12
				c-0.29-1.57-0.54-3.26-0.74-5.07c-0.2-1.8-0.29-3.63-0.29-5.49c0-2.03,0.42-3.6,1.26-4.71c0.84-1.11,1.82-1.66,2.96-1.66
				c0.68,0,1.32,0.19,1.94,0.57c0.62,0.38,1.16,0.98,1.62,1.79c0.11,0.2,0.21,0.37,0.31,0.51c0.1,0.14,0.23,0.21,0.41,0.21
				c0.17,0,0.32-0.08,0.44-0.23c0.12-0.15,0.3-0.36,0.54-0.61c0.57-0.61,1.14-1.14,1.73-1.58c0.59-0.44,1.42-0.67,2.48-0.67
				c1.15,0,2.11,0.48,2.88,1.45c0.76,0.97,1.14,2.26,1.14,3.89c0,1.19-0.15,2.31-0.46,3.33c-0.31,1.03-0.75,1.85-1.34,2.46
				c-0.59,0.61-1.32,0.91-2.19,0.91c-0.55,0-1.04-0.12-1.49-0.36c-0.45-0.24-0.88-0.48-1.31-0.72c-0.42-0.24-0.91-0.36-1.45-0.36
				c-0.57,0-1.04,0.26-1.41,0.78c-0.37,0.52-0.67,1.19-0.88,2.02c-0.22,0.83-0.39,1.72-0.52,2.69c-0.13,0.97-0.25,1.91-0.36,2.82
				c-0.11,0.91-0.25,1.7-0.42,2.36c-0.17,0.79-0.42,1.43-0.74,1.92C175.69,48.07,175.3,48.31,174.85,48.31z"/>
			<path class="st3" d="M199.17,48.31c-1.76,0-3.37-0.56-4.82-1.68c-1.45-1.12-2.61-2.69-3.48-4.73c-0.87-2.03-1.31-4.41-1.31-7.13
				c0-3.4,0.76-5.99,2.27-7.76c1.51-1.77,3.89-2.65,7.14-2.65c3.29,0,5.69,0.9,7.21,2.69c1.51,1.79,2.27,4.39,2.27,7.79
				c0,2.69-0.42,5.05-1.26,7.07c-0.84,2.02-1.96,3.59-3.37,4.71C202.42,47.75,200.87,48.31,199.17,48.31z M199.04,45.07
				c0.85,0,1.49-0.38,1.93-1.14c0.44-0.76,0.65-1.85,0.65-3.28c0-1.37-0.22-2.43-0.65-3.18c-0.44-0.75-1.08-1.12-1.93-1.12
				c-0.87,0-1.53,0.37-1.96,1.12c-0.44,0.75-0.65,1.81-0.65,3.18c0,1.42,0.22,2.52,0.65,3.28
				C197.51,44.69,198.16,45.07,199.04,45.07z"/>
			<path class="st3" d="M215.12,55.4c-0.78,0-1.36-0.34-1.73-1.03c-0.37-0.69-0.7-1.61-0.98-2.78c-0.24-0.99-0.49-2.19-0.74-3.6
				c-0.25-1.41-0.48-2.93-0.69-4.55c-0.21-1.63-0.38-3.26-0.51-4.9c-0.13-1.64-0.2-3.18-0.2-4.63c0-3.4,0.41-5.84,1.24-7.32
				c0.83-1.47,2.06-2.21,3.69-2.21c1.76,0,3.12,0.85,4.05,2.55c0.11,0.2,0.21,0.36,0.29,0.48c0.09,0.11,0.21,0.17,0.36,0.17
				c0.17,0,0.31-0.06,0.41-0.19c0.1-0.13,0.21-0.29,0.34-0.5c0.52-0.81,1.19-1.44,2.01-1.87c0.82-0.43,1.69-0.65,2.63-0.65
				c1.11,0,2.06,0.27,2.86,0.82c0.8,0.55,1.45,1.28,1.96,2.19c0.51,0.91,0.89,1.94,1.13,3.07c0.24,1.13,0.36,2.29,0.36,3.49
				c0,1.63-0.21,3.28-0.62,4.95c-0.41,1.68-1,3.23-1.76,4.65c-0.76,1.42-1.67,2.57-2.73,3.45c-1.06,0.88-2.23,1.31-3.51,1.31
				c-0.89,0-1.67-0.29-2.32-0.88c-0.22-0.2-0.41-0.38-0.59-0.53c-0.17-0.15-0.36-0.23-0.56-0.23c-0.39,0-0.64,0.24-0.75,0.72
				c-0.15,0.79-0.28,1.48-0.39,2.08c-0.11,0.6-0.26,1.29-0.46,2.08c-0.31,1.24-0.66,2.2-1.06,2.86
				C216.46,55.07,215.88,55.4,215.12,55.4z M220.77,43.4c0.7,0,1.28-0.23,1.75-0.7c0.47-0.47,0.82-1.03,1.05-1.68
				c0.23-0.65,0.34-1.23,0.34-1.73c0-0.74-0.22-1.34-0.65-1.81c-0.44-0.47-1.1-0.7-1.99-0.7c-0.81,0-1.44,0.25-1.9,0.74
				c-0.46,0.5-0.69,1.38-0.69,2.65c0,1.02,0.17,1.81,0.51,2.38C219.52,43.11,220.05,43.4,220.77,43.4z"/>
		</g>
	</g>
</g>
</svg>
