<?xml version="1.0" encoding="utf-8"?>
<!-- Generator: Adobe Illustrator 24.1.2, SVG Export Plug-In . SVG Version: 6.00 Build 0)  -->
<svg version="1.1" xmlns="http://www.w3.org/2000/svg" xmlns:xlink="http://www.w3.org/1999/xlink" x="0px" y="0px"
	 viewBox="0 0 260.4 74.1" style="enable-background:new 0 0 260.4 74.1;" xml:space="preserve">
<style type="text/css">
	.st0{fill:#2A4F6B;}
	.st1{fill:#FFFFFF;}
	.st2{fill:#4894D0;}
	.st3{fill:#FFDF4D;}
</style>
<g id="background">
	<g>
		<path class="st0" d="M7.6,3.9c81.7-3.5,163.5-3.5,245.2,0C256.3,4,259,6.7,259,10v54.1c0,3.3-2.7,6-6.2,6.1
			c-81.7,3.5-163.5,3.5-245.2,0c-3.5-0.1-6.2-2.9-6.2-6.1V10C1.4,6.7,4.1,4,7.6,3.9z"/>
	</g>
</g>
<g id="text">
	<g>
		<path class="st1" d="M39.8,53.6c-3.2,0-5.9-0.8-7.9-2.4c-2.1-1.6-3.6-4-4.4-7.2c-0.7-2.7-1.1-5.9-1.1-9.6c0-3,0.2-5.6,0.5-7.8
			c0.4-2.3,0.9-4.1,1.6-5.7c0.7-1.6,1.6-2.9,2.5-3.9c1-1,2.1-1.7,3.2-2.1c1-0.3,1.9-0.5,2.8-0.5c1.9,0,3.5,0.5,4.8,1.4
			c1.3,0.9,2.4,2.2,3,3.7c0.6,1.4,0.9,2.9,0.9,4.4c0,1.4-0.2,2.9-0.7,4.5c-0.4,1.3-0.9,2.8-1.5,4.2c-0.6,1.4-1.2,2.7-1.8,4.1
			c-0.5,1.2-1,2.4-1.4,3.6c-0.2,0.7-0.4,1.3-0.5,1.8c0,0,0.1,0,0.1,0c0.5,0,0.7-0.1,0.8-0.1l1.4-1c1.1-0.8,2.1-1.2,3.1-1.2
			c0.3,0,0.5,0,0.8,0.1c1.1,0.2,2.1,0.8,2.8,1.7c0.5,0.6,0.8,1.1,1.1,1.7c0.5,1.2,0.9,3.1-0.2,5.4c-0.7,1.5-1.8,2.7-3.4,3.5l-0.1,0
			c-0.9,0.5-2,0.8-3.1,1C42.2,53.5,41,53.6,39.8,53.6z"/>
		<path class="st1" d="M57.1,53.6c-4.3,0-7.6-1.5-9.9-4.5c-2.2-2.8-3.3-6.8-3.3-11.7c0-1.9,0.2-3.6,0.5-5.3c0.4-1.8,1-3.5,1.9-4.9
			c1-1.6,2.3-2.8,3.8-3.7c1.5-0.8,3.3-1.3,5.4-1.3c2.6,0,4.8,0.6,6.7,1.7c2,1.2,3.5,2.8,4.5,4.9c1,2,1.5,4.3,1.5,6.7
			c0,1.5-0.3,3.1-0.9,4.6c-0.5,1.3-1.3,2.5-2.3,3.6c0.1,0.1,0.1,0.3,0.2,0.4c0.7,1.6,0.6,3.5-0.2,5.2c-0.7,1.4-1.6,2.4-2.8,3.1
			c-0.6,0.3-1.3,0.6-2,0.8C59.4,53.5,58.4,53.6,57.1,53.6z"/>
		<path class="st1" d="M90.7,53.6c-1.6,0-3-1.1-3.8-2.9c-0.4-0.9-0.6-2.1-0.7-3.7c0,0,0,0,0,0.1c-0.5,1.5-1.1,2.8-1.8,3.9
			c-1.1,1.7-2.7,2.6-4.3,2.6c-1.4,0-2.8-0.7-3.6-2c-0.6-0.8-0.9-1.9-1.1-3c0,0,0-0.1,0-0.1c-0.3,1.3-0.7,2.2-1.2,3
			c-0.7,1.1-1.6,1.7-2.5,2c-0.5,0.1-0.9,0.2-1.2,0.2c-1.5,0-2.9-0.9-3.8-2.6c-0.5-0.8-0.9-1.8-1.2-2.8c-0.3-0.9-0.5-2-0.8-3.3
			c-0.2-1.2-0.4-2.5-0.6-3.9c-0.2-1.4-0.4-2.8-0.5-4.1c-0.1-1.4-0.2-2.7-0.2-3.8c0-3.4,0.6-5.9,1.8-7.7c1.4-2,3.3-3.2,5.5-3.2
			c1.3,0,2.5,0.4,3.6,1c0.4,0.2,0.7,0.5,1,0.8c0.3-0.3,0.6-0.5,0.9-0.7c1.1-0.7,2.2-1.1,3.5-1.1c1.5,0,2.8,0.4,4.1,1.3
			c0.3,0.2,0.7,0.5,0.9,0.7c0.3-0.3,0.6-0.5,0.9-0.8c1.1-0.8,2.3-1.3,3.7-1.3c1.7,0,3.3,0.6,4.8,1.7c1.4,1.1,2.6,2.8,3.4,5
			c0.7,2,1.1,4.5,1.1,7.4c0,1.9-0.2,3.8-0.5,5.7c-0.3,1.8-0.8,3.5-1.3,5.1c-0.6,1.7-1.3,3-2,4C93.4,53.2,91.8,53.6,90.7,53.6z"/>
		<path class="st1" d="M106.8,53.6c-2.4,0-4.6-0.8-6.6-2.3c-1.9-1.5-3.4-3.5-4.6-6.2c-1.1-2.5-1.6-5.5-1.6-8.8
			c0-4.4,1.1-7.9,3.2-10.4s5.3-3.7,9.4-3.7c4.2,0,7.3,1.3,9.5,3.8c2.1,2.5,3.2,6,3.2,10.4c0,3.3-0.5,6.2-1.6,8.7
			c-1.1,2.6-2.6,4.7-4.4,6.2C111.3,52.8,109.2,53.6,106.8,53.6z"/>
		<path class="st1" d="M131.7,53.6c-1.6,0-3-1-3.8-2.8c-0.5-1-0.7-2.4-0.7-4.4c-0.1,0.6-0.2,1.2-0.4,1.8c-0.3,1.2-0.7,2.3-1.3,3.2
			c-0.9,1.4-2.2,2.2-3.7,2.2s-2.8-0.8-3.7-2.2c-0.6-0.9-1.1-2-1.4-3.3c-0.3-1.3-0.6-2.8-0.9-4.4c-0.3-1.7-0.6-3.5-0.8-5.4
			c-0.2-2-0.3-4-0.3-6c0-2.9,0.7-5.4,2.1-7.2c1.4-1.9,3.3-3,5.4-3c1.2,0,2.4,0.4,3.5,1c0.3,0.2,0.6,0.4,0.9,0.7
			c0.3-0.3,0.6-0.5,1-0.7c1.1-0.7,2.3-1,3.7-1c1.7,0,3.2,0.6,4.5,1.8c1.3,1.1,2.2,2.7,2.9,4.7c0.6,1.8,1,4,1,6.6
			c0,2.3-0.2,4.4-0.5,6.4c-0.3,2-0.8,3.8-1.3,5.4c-0.6,1.7-1.3,3.1-2.1,4.1C134.3,53.2,132.8,53.6,131.7,53.6z"/>
		<path class="st1" d="M153.7,53.6c-3,0-5.5-0.8-7.4-2.4c-2-1.6-3.4-4.2-4.3-7.5c-0.7-2.9-1.1-6.6-1.1-11c0-3,0.2-5.6,0.5-7.6
			c0.4-2.4,1.1-4.4,2.1-5.9c1.1-1.7,2.6-2.9,4.3-3.6c1.5-0.6,3.3-0.9,5.5-0.9c3.3,0,6.3,0.6,8.9,1.8c2.8,1.3,5.1,3.4,6.7,6.1
			c1.7,2.8,2.5,6.2,2.5,10.1c0,2.7-0.4,5.2-1.2,7.7c-0.8,2.5-2,4.8-3.5,6.7c-1.6,2-3.5,3.6-5.7,4.8C159,53,156.5,53.6,153.7,53.6z
			 M153,42.2c0.3,0,0.6-0.1,0.8-0.3c0.3-0.3,0.6-0.7,0.9-1.3c0.3-0.7,0.4-1.5,0.4-2.5c0-1.4-0.3-1.9-0.4-2.1
			c-0.2-0.3-0.7-0.4-1.4-0.4c-0.2,0-0.4,0-0.5,0c0,0,0,0,0,0c-0.1,0.7-0.2,1.6-0.2,2.7s0.1,2.1,0.2,3
			C152.8,41.8,152.9,42.1,153,42.2C153,42.2,153,42.2,153,42.2z"/>
		<path class="st1" d="M174.1,53.6c-1.5,0-2.8-0.8-3.8-2.2c-0.6-0.9-1-2-1.4-3.3c-0.3-1.3-0.6-2.8-0.9-4.4c-0.3-1.7-0.6-3.5-0.8-5.4
			c-0.2-2-0.3-4-0.3-6c0-3,0.7-5.4,2.1-7.2c1.4-1.9,3.3-2.9,5.4-2.9c1.2,0,2.4,0.3,3.4,1c0.4,0.2,0.8,0.5,1.1,0.8
			c0.2-0.2,0.5-0.4,0.7-0.6c1.1-0.9,2.5-1.3,4.2-1.3c2.1,0,3.9,0.9,5.2,2.6c1.3,1.7,2,3.8,2,6.4c0,1.6-0.2,3.1-0.6,4.5
			c-0.5,1.6-1.2,3-2.2,4c-1.2,1.2-2.6,1.8-4.3,1.8c-1,0-2-0.2-2.8-0.7c-0.2-0.1-0.5-0.3-0.7-0.4c-0.1,0.6-0.3,1.3-0.4,2
			c-0.1,0.9-0.2,1.9-0.4,2.8c-0.1,1.1-0.3,2-0.5,2.9c-0.3,1.2-0.7,2.3-1.3,3.1C176.9,52.8,175.5,53.6,174.1,53.6z"/>
		<path class="st1" d="M198.4,53.6c-2.4,0-4.6-0.8-6.6-2.3c-1.9-1.5-3.4-3.5-4.6-6.2c-1.1-2.5-1.6-5.5-1.6-8.8
			c0-4.4,1.1-7.9,3.2-10.4s5.3-3.7,9.4-3.7c4.2,0,7.4,1.3,9.5,3.8c2.1,2.5,3.2,6,3.2,10.4c0,3.2-0.5,6.2-1.6,8.7
			c-1.1,2.6-2.6,4.7-4.4,6.2C202.9,52.8,200.7,53.6,198.4,53.6z"/>
		<path class="st1" d="M214.3,60.7c-1.9,0-3.5-1-4.4-2.8c-0.5-1-1-2.2-1.4-3.8c-0.3-1.1-0.5-2.4-0.8-3.9c-0.3-1.5-0.5-3.1-0.7-4.8
			c-0.2-1.7-0.4-3.4-0.5-5.1c-0.1-1.7-0.2-3.4-0.2-5c0-4.2,0.6-7.2,1.8-9.4c1.4-2.5,3.7-3.9,6.4-3.9c1.9,0,3.5,0.6,4.8,1.8
			c0.4-0.3,0.8-0.6,1.3-0.9c1.2-0.6,2.6-1,3.9-1c1.7,0,3.2,0.5,4.5,1.3c1.2,0.8,2.2,2,3,3.4c0.7,1.3,1.2,2.7,1.6,4.2
			c0.3,1.4,0.4,2.9,0.4,4.4c0,2-0.3,4-0.8,6c-0.5,2-1.2,3.9-2.1,5.6c-1,1.8-2.2,3.3-3.6,4.5c-1.6,1.3-3.4,2-5.4,2
			c-0.6,0-1.2-0.1-1.8-0.3c-0.1,0.3-0.1,0.5-0.2,0.8c-0.4,1.7-0.9,3-1.5,4C217.7,59.8,216.1,60.7,214.3,60.7z"/>
		<path class="st2" d="M39.8,51.7c-2.9,0-5.3-0.7-7-2c-1.8-1.4-3.1-3.5-3.8-6.2c-0.7-2.5-1-5.5-1-9.1c0-2.9,0.2-5.4,0.5-7.4
			c0.4-2.1,0.8-3.8,1.5-5.2c0.6-1.4,1.4-2.5,2.2-3.3c0.8-0.8,1.7-1.4,2.6-1.7c0.8-0.3,1.6-0.4,2.4-0.4c1.6,0,2.9,0.4,4,1.1
			c1.1,0.8,1.9,1.7,2.4,2.9c0.5,1.1,0.8,2.4,0.8,3.6c0,1.2-0.2,2.4-0.7,3.9c-0.4,1.3-0.9,2.6-1.5,4c-0.6,1.3-1.1,2.7-1.7,4.1
			c-0.6,1.3-1.1,2.5-1.5,3.7c-0.4,1.1-0.6,2-0.8,2.8c-0.1,0.4,0,0.8,0,1c0.1,0.1,0.2,0.2,0.5,0.3c0.4,0.2,0.8,0.2,1.3,0.2
			c1,0,1.4-0.2,1.6-0.3l1.5-1.1c0.8-0.6,1.6-0.9,2.3-0.9c0.2,0,0.3,0,0.5,0c0.8,0.2,1.4,0.5,2,1.2c0.4,0.5,0.6,0.9,0.8,1.2
			c0.3,0.8,0.6,2.1-0.2,3.7c-0.5,1.1-1.4,2-2.7,2.7l0,0c-0.8,0.4-1.7,0.7-2.8,0.9C42,51.6,40.9,51.7,39.8,51.7z"/>
		<path class="st2" d="M57.1,51.7c-3.8,0-6.7-1.3-8.7-3.9c-1.9-2.5-2.8-6-2.8-10.4c0-1.7,0.2-3.3,0.5-4.9c0.3-1.6,0.9-3.1,1.6-4.3
			c0.8-1.3,1.9-2.4,3.2-3.1c1.3-0.7,2.9-1.1,4.7-1.1c2.3,0,4.3,0.5,6,1.5c1.7,1,3,2.4,3.8,4.2c0.9,1.7,1.3,3.7,1.3,5.8
			c0,1.3-0.3,2.5-0.8,3.8c-0.5,1.2-1.3,2.4-2.3,3.3c-0.3,0.3-0.6,0.5-0.9,0.7c0.4,0.3,0.8,0.9,1,1.5c0.4,1.1,0.4,2.3-0.2,3.5
			c-0.5,1-1.2,1.8-2.1,2.3c-0.6,0.3-1.2,0.5-1.8,0.7C59.1,51.6,58.2,51.7,57.1,51.7z M55.2,38.7c0,0,0.1,0,0.2,0c0,0,0.1,0,0.1-0.1
			c0.2-0.2,0.3-0.4,0.5-0.7c0.1-0.3,0.1-0.4,0.1-0.5c0-0.1,0-0.2,0-0.3c-0.1,0-0.2,0-0.4,0c-0.2,0-0.3,0-0.3,0c0,0,0,0.1-0.1,0.2
			c-0.1,0.3-0.1,0.7-0.1,1C55.2,38.5,55.2,38.6,55.2,38.7z"/>
		<path class="st2" d="M90.7,51.7c-1,0-1.9-0.7-2.4-1.8c-0.3-0.8-0.5-2-0.5-3.7c0-0.8,0-1.7-0.1-2.6c0-0.8-0.1-1.6-0.3-2.3
			c-0.1-0.5-0.3-0.9-0.5-1.2c0,0-0.1-0.2-0.4-0.2c-0.1,0-0.2,0-0.3,0c-0.1,0.2-0.2,0.4-0.3,0.8c-0.1,0.6-0.3,1.3-0.4,1.9
			c-0.2,1.2-0.6,2.5-1,3.8c-0.4,1.3-1,2.5-1.6,3.4c-1.1,1.6-2.3,1.9-3.1,1.9c-1,0-1.8-0.5-2.3-1.3c-0.4-0.6-0.6-1.3-0.8-2.2
			c-0.1-0.7-0.1-1.3-0.1-2.1c0-0.9,0-1.8-0.1-2.7c0-0.8-0.1-1.6-0.3-2.3c-0.1-0.5-0.3-0.9-0.5-1.1C76,40,75.8,40,75.6,40
			c-0.2,0-0.4,0-0.5,0.1c-0.2,0.3-0.4,0.8-0.4,1.4c-0.1,0.9-0.2,1.8-0.3,2.8c-0.1,1.1-0.2,2.2-0.4,3.3c-0.3,1.2-0.6,2.1-1,2.8
			c-0.5,0.7-1.1,1.2-1.7,1.3c-0.4,0.1-0.6,0.1-0.9,0.1c-0.6,0-1.7-0.2-2.5-1.7c-0.4-0.7-0.7-1.5-1-2.5c-0.2-0.8-0.5-1.9-0.7-3.1
			c-0.2-1.2-0.4-2.5-0.6-3.8s-0.3-2.7-0.5-4c-0.1-1.3-0.2-2.5-0.2-3.6c0-2.9,0.5-5.1,1.5-6.6c1.1-1.6,2.5-2.5,4.3-2.5
			c1,0,1.9,0.3,2.8,0.8c0.7,0.4,1.2,0.9,1.7,1.6c0.6-0.6,1.2-1.2,1.8-1.6c0.8-0.5,1.7-0.8,2.7-0.8c1.2,0,2.3,0.3,3.3,1
			c0.7,0.5,1.3,1,1.7,1.6c0.6-0.7,1.2-1.2,1.8-1.7c0.8-0.6,1.8-1,2.9-1c1.4,0,2.7,0.5,3.9,1.4c1.2,0.9,2.1,2.3,2.8,4.2
			c0.7,1.8,1,4,1,6.6c0,1.8-0.2,3.6-0.5,5.3c-0.3,1.7-0.7,3.3-1.2,4.7c-0.5,1.5-1.1,2.7-1.8,3.6C92.8,51.1,91.8,51.7,90.7,51.7z"/>
		<path class="st2" d="M106.8,51.7c-2.1,0-4-0.7-5.7-2c-1.7-1.3-3-3.1-4-5.5c-1-2.3-1.5-5-1.5-8c0-3.9,0.9-6.9,2.7-9.1
			s4.6-3.2,8.3-3.2c3.7,0,6.5,1.1,8.3,3.2c1.8,2.1,2.7,5.2,2.7,9.1c0,3-0.5,5.6-1.4,7.9c-1,2.3-2.3,4.1-3.9,5.4
			C110.7,51.1,108.8,51.7,106.8,51.7z M106.7,39.8c-0.5,0-0.6,0.2-0.6,0.3c-0.2,0.3-0.4,0.9-0.4,2.1c0,1.3,0.2,1.9,0.4,2.2
			c0.1,0.1,0.2,0.3,0.6,0.3c0.4,0,0.5-0.1,0.6-0.3c0.3-0.4,0.4-1.2,0.4-2.2c0-1.2-0.2-1.8-0.4-2.1C107.2,39.9,107.1,39.8,106.7,39.8
			z"/>
		<path class="st2" d="M131.7,51.7c-1,0-1.9-0.6-2.4-1.8c-0.4-0.8-0.5-2-0.5-3.7c0-0.7,0-1.5,0-2.4c0-0.8-0.1-1.6-0.2-2.3
			c-0.1-0.6-0.3-1-0.5-1.4c0,0-0.1-0.1-0.4-0.1c-0.5,0-0.7,0.2-0.7,0.3c-0.3,0.4-0.5,0.9-0.6,1.6c-0.2,0.9-0.3,1.8-0.4,2.8
			c-0.1,1.1-0.3,2.2-0.5,3.1c-0.2,1-0.6,1.9-1,2.5c-0.6,0.9-1.5,1.5-2.4,1.5c-1,0-1.8-0.5-2.5-1.5c-0.5-0.7-0.8-1.6-1.1-2.7
			c-0.3-1.2-0.6-2.7-0.9-4.3c-0.3-1.6-0.6-3.4-0.8-5.2c-0.2-1.9-0.3-3.8-0.3-5.7c0-2.5,0.6-4.5,1.7-5.9c1.1-1.5,2.6-2.3,4.2-2.3
			c0.9,0,1.8,0.3,2.7,0.8c0.6,0.4,1.2,0.9,1.7,1.6c0.5-0.6,1.1-1.2,1.8-1.6c0.8-0.5,1.8-0.8,3-0.8c1.3,0,2.5,0.5,3.6,1.4
			c1,0.9,1.8,2.2,2.4,3.9c0.6,1.6,0.8,3.6,0.8,5.9c0,2.2-0.1,4.2-0.4,6.1c-0.3,1.9-0.7,3.6-1.2,5c-0.5,1.5-1.1,2.7-1.8,3.6
			C133.7,51.2,132.8,51.7,131.7,51.7z"/>
		<path class="st2" d="M153.7,51.7c-2.6,0-4.8-0.7-6.5-2c-1.7-1.4-2.9-3.6-3.6-6.5c-0.7-2.7-1-6.2-1-10.5c0-2.9,0.2-5.3,0.5-7.3
			c0.3-2.1,0.9-3.9,1.8-5.1c0.9-1.4,2.1-2.4,3.6-2.9c1.4-0.5,3-0.8,4.9-0.8c3.1,0,5.9,0.6,8.3,1.7c2.5,1.2,4.6,3,6,5.4
			c1.5,2.4,2.2,5.5,2.2,9.1c0,2.4-0.4,4.8-1.1,7.1c-0.7,2.3-1.8,4.3-3.2,6.1c-1.4,1.8-3.1,3.3-5.1,4.3
			C158.6,51.2,156.3,51.7,153.7,51.7z M153.3,33.8c-1,0-1.4,0.3-1.5,0.4c-0.3,0.2-0.4,0.6-0.5,1.1c-0.2,0.8-0.3,1.9-0.3,3.2
			c0,1.2,0.1,2.4,0.3,3.4c0.1,0.8,0.4,1.4,0.7,1.8c0.1,0.1,0.3,0.4,1.1,0.4c0.7,0,1.3-0.2,1.8-0.7c0.6-0.5,1-1.1,1.4-2
			c0.4-0.9,0.6-2,0.6-3.3c0-1.5-0.3-2.7-0.8-3.4C155.3,34.1,154.5,33.8,153.3,33.8z"/>
		<path class="st2" d="M174.1,51.7c-1,0-1.9-0.5-2.5-1.5c-0.5-0.7-0.8-1.6-1.1-2.7c-0.3-1.2-0.6-2.7-0.9-4.3
			c-0.3-1.6-0.6-3.4-0.8-5.2c-0.2-1.9-0.3-3.8-0.3-5.7c0-2.5,0.6-4.5,1.7-5.9c1.1-1.5,2.6-2.3,4.1-2.3c0.9,0,1.8,0.3,2.7,0.8
			c0.6,0.4,1.2,1,1.8,1.7c0.6-0.6,1.1-1.1,1.7-1.5c0.9-0.6,2-1,3.4-1c1.6,0,3,0.7,4.1,2c1,1.3,1.6,3,1.6,5.1c0,1.4-0.2,2.7-0.6,3.9
			c-0.4,1.3-1,2.4-1.8,3.2c-0.9,0.9-2,1.4-3.3,1.4c-0.8,0-1.5-0.2-2.2-0.5c-0.4-0.3-0.9-0.5-1.3-0.7c-0.2-0.1-0.5-0.2-0.8-0.2
			c-0.1,0-0.1,0-0.2,0.1c-0.2,0.3-0.4,0.8-0.6,1.4c-0.2,0.7-0.4,1.6-0.5,2.4c-0.1,1-0.3,1.9-0.4,2.8c-0.1,1-0.3,1.9-0.5,2.6
			c-0.2,1-0.6,1.8-1,2.5C175.9,51.2,175,51.7,174.1,51.7z"/>
		<path class="st2" d="M198.4,51.7c-2.1,0-4-0.7-5.7-2c-1.7-1.3-3-3.1-4-5.5c-1-2.3-1.5-5-1.5-8c0-3.9,0.9-6.9,2.7-9.1
			s4.6-3.2,8.3-3.2c3.7,0,6.5,1.1,8.3,3.2c1.8,2.1,2.7,5.2,2.7,9.1c0,3-0.5,5.6-1.4,7.9c-1,2.3-2.3,4.1-3.9,5.4
			C202.3,51.1,200.4,51.7,198.4,51.7z M198.3,39.8c-0.5,0-0.6,0.2-0.6,0.3c-0.2,0.3-0.4,0.9-0.4,2.1c0,1.3,0.2,1.9,0.4,2.2
			c0.1,0.1,0.2,0.3,0.6,0.3c0.4,0,0.5-0.1,0.6-0.3c0.2-0.3,0.4-1,0.4-2.2c0-1.2-0.2-1.8-0.4-2.1C198.8,39.9,198.6,39.8,198.3,39.8z"
			/>
		<path class="st2" d="M214.3,58.8c-1.3,0-2.4-0.7-3.1-1.9c-0.5-0.8-0.8-1.9-1.2-3.3c-0.3-1-0.5-2.3-0.8-3.7c-0.3-1.5-0.5-3-0.7-4.7
			c-0.2-1.6-0.4-3.3-0.5-5c-0.1-1.7-0.2-3.3-0.2-4.8c0-3.8,0.5-6.5,1.5-8.3c1.1-2,2.9-3,5-3c1.9,0,3.6,0.8,4.8,2.5
			c0.6-0.7,1.3-1.2,2-1.6c1-0.5,2.1-0.8,3.3-0.8c1.4,0,2.6,0.4,3.7,1.1c1,0.7,1.8,1.6,2.5,2.8c0.6,1.1,1.1,2.3,1.3,3.6
			c0.3,1.3,0.4,2.6,0.4,3.9c0,1.8-0.2,3.6-0.7,5.5s-1.1,3.6-1.9,5.1c-0.9,1.6-1.9,3-3.2,4c-1.3,1.1-2.8,1.7-4.4,1.7
			c-1.1,0-2.1-0.3-2.9-1c0,0.2-0.1,0.4-0.1,0.7c-0.1,0.6-0.3,1.4-0.5,2.2c-0.4,1.5-0.8,2.6-1.3,3.4
			C216.7,58.2,215.6,58.8,214.3,58.8z M219.7,40.4c0,0-0.2,0.3-0.2,1.3c0,0.8,0.2,1.2,0.2,1.3c0,0,0.1,0,0.3,0
			c0.4,0,0.6-0.1,0.7-0.3c0.3-0.3,0.5-0.6,0.6-1c0.2-0.5,0.2-0.8,0.2-1c0-0.3-0.1-0.4-0.1-0.4c0,0-0.2-0.2-0.9-0.2
			C220.1,40.2,219.8,40.3,219.7,40.4L219.7,40.4z"/>
		<g>
			<g>
				<path class="st3" d="M39.8,49.9c-2.6,0-4.6-0.6-6.1-1.7c-1.5-1.2-2.5-2.9-3.1-5.2c-0.6-2.3-0.9-5.1-0.9-8.5c0-2.8,0.2-5.1,0.5-7
					s0.8-3.5,1.3-4.6c0.5-1.2,1.1-2.1,1.8-2.8c0.7-0.6,1.3-1.1,2-1.3c0.7-0.2,1.3-0.3,1.9-0.3c1.3,0,2.4,0.3,3.2,0.9
					s1.4,1.3,1.8,2.2c0.4,0.9,0.6,1.8,0.6,2.7c0,0.9-0.2,2-0.6,3.2c-0.4,1.2-0.8,2.5-1.4,3.9c-0.6,1.4-1.1,2.7-1.7,4
					S38,37.8,37.6,39c-0.4,1.2-0.7,2.3-0.8,3.3c-0.1,1,0,1.7,0.3,2.3c0.3,0.5,0.7,0.8,1.3,1c0.6,0.2,1.1,0.3,1.8,0.3
					c1,0,1.8-0.2,2.4-0.6c0.6-0.4,1.1-0.8,1.5-1.1c0.7-0.5,1.2-0.7,1.7-0.6s0.8,0.3,1.1,0.6c0.3,0.3,0.4,0.6,0.5,0.8
					c0.2,0.6,0.2,1.2-0.1,2c-0.3,0.7-1,1.3-1.9,1.8c-0.7,0.3-1.5,0.6-2.4,0.8C41.8,49.8,40.8,49.9,39.8,49.9z"/>
				<path class="st3" d="M57.1,49.9c-3.4,0-5.8-1.1-7.5-3.2c-1.6-2.2-2.5-5.2-2.5-9.2c0-1.6,0.1-3,0.4-4.4c0.3-1.4,0.8-2.6,1.4-3.7
					s1.5-1.9,2.6-2.5c1.1-0.6,2.4-0.9,4-0.9c2.1,0,3.8,0.4,5.2,1.3c1.4,0.9,2.5,2,3.2,3.5c0.7,1.5,1.1,3.1,1.1,4.9c0,1-0.2,2-0.6,3
					s-1,1.9-1.9,2.7c-0.8,0.8-1.9,1.5-3.2,1.9c-1.3,0.5-2.8,0.7-4.7,0.7c-0.5,0-0.8,0.1-1,0.2c-0.2,0.2-0.3,0.4-0.3,0.7
					c0,0.6,0.2,1,0.7,1.2c0.4,0.2,1,0.3,1.5,0.3s1.1,0,1.5-0.1c0.5,0,1-0.2,1.4-0.3c0.5-0.2,0.9-0.5,1.5-0.9
					c0.4-0.3,0.8-0.4,1.3-0.3c0.5,0.1,0.8,0.4,1,1c0.2,0.6,0.2,1.2-0.1,1.8c-0.3,0.7-0.8,1.2-1.3,1.5c-0.5,0.3-1,0.5-1.5,0.6
					C58.8,49.8,58.1,49.9,57.1,49.9z M55.4,40.5c0.4,0,0.8-0.2,1.2-0.5s0.6-0.8,0.8-1.2s0.3-0.9,0.3-1.3c0-1.5-0.7-2.2-2-2.2
					c-0.6,0-1,0.2-1.3,0.5c-0.3,0.3-0.5,0.7-0.6,1.2c-0.1,0.5-0.2,1-0.2,1.5c0,0.7,0.2,1.3,0.5,1.6C54.4,40.4,54.8,40.5,55.4,40.5z"
					/>
				<path class="st3" d="M80.1,49.9c-0.5,0-0.8-0.2-1-0.5c-0.2-0.4-0.4-0.8-0.5-1.4s-0.1-1.2-0.1-1.8c0-0.9,0-1.8-0.1-2.8
					c0-1-0.1-1.8-0.3-2.6s-0.5-1.5-0.8-1.9c-0.4-0.5-0.9-0.7-1.7-0.7c-0.8,0-1.4,0.3-1.7,0.9s-0.6,1.3-0.8,2.2
					c-0.1,0.9-0.2,1.9-0.3,2.9c-0.1,1-0.2,2-0.4,2.9c-0.2,1-0.4,1.7-0.7,2s-0.5,0.6-0.8,0.7c-0.2,0.1-0.4,0.1-0.5,0.1
					c-0.5,0-0.8-0.3-1.2-0.9c-0.3-0.6-0.6-1.3-0.8-2.1c-0.2-0.7-0.4-1.7-0.7-2.9c-0.2-1.2-0.4-2.4-0.6-3.7c-0.2-1.3-0.3-2.6-0.5-3.9
					s-0.2-2.4-0.2-3.3c0-2.5,0.4-4.3,1.2-5.4c0.8-1.2,1.8-1.7,3-1.7c0.7,0,1.4,0.2,2.1,0.6s1.2,1,1.6,1.7c0.1,0.2,0.2,0.4,0.3,0.5
					c0.1,0.1,0.2,0.2,0.4,0.2c0.2,0,0.3-0.1,0.5-0.2s0.3-0.4,0.6-0.7c0.6-0.7,1.2-1.2,1.8-1.6S79,26,79.8,26c0.9,0,1.7,0.3,2.4,0.8
					s1.3,1.1,1.7,1.8c0.1,0.2,0.2,0.3,0.3,0.5c0.1,0.1,0.2,0.2,0.4,0.2s0.3-0.1,0.5-0.2s0.3-0.4,0.6-0.7c0.6-0.7,1.2-1.2,1.8-1.7
					c0.6-0.4,1.2-0.6,2-0.6c1.1,0,2.1,0.4,3,1.1c0.9,0.7,1.7,1.9,2.2,3.4s0.8,3.5,0.8,5.9c0,1.7-0.1,3.3-0.4,4.9s-0.7,3.1-1.1,4.4
					c-0.5,1.3-1,2.3-1.5,3.1c-0.6,0.8-1.1,1.2-1.7,1.2c-0.4,0-0.7-0.3-0.9-0.8s-0.3-1.5-0.3-2.9c0-0.8,0-1.7-0.1-2.7
					c0-0.9-0.1-1.8-0.3-2.6s-0.4-1.5-0.8-2s-0.9-0.8-1.6-0.8c-0.6,0-1.1,0.2-1.4,0.6c-0.3,0.4-0.5,1-0.7,1.6
					c-0.1,0.6-0.3,1.3-0.4,1.9c-0.2,1.2-0.5,2.3-0.9,3.5c-0.4,1.2-0.8,2.2-1.4,2.9C81.4,49.5,80.8,49.9,80.1,49.9z"/>
				<path class="st3" d="M106.8,49.9c-1.8,0-3.4-0.6-4.8-1.7s-2.6-2.7-3.5-4.7c-0.9-2-1.3-4.4-1.3-7.1c0-3.4,0.8-6,2.3-7.8
					c1.5-1.8,3.9-2.6,7.1-2.6c3.3,0,5.7,0.9,7.2,2.7c1.5,1.8,2.3,4.4,2.3,7.8c0,2.7-0.4,5-1.3,7.1c-0.8,2-2,3.6-3.4,4.7
					C110.1,49.3,108.5,49.9,106.8,49.9z M106.7,46.6c0.8,0,1.5-0.4,1.9-1.1s0.7-1.8,0.7-3.3c0-1.4-0.2-2.4-0.7-3.2
					c-0.4-0.8-1.1-1.1-1.9-1.1c-0.9,0-1.5,0.4-2,1.1c-0.4,0.8-0.7,1.8-0.7,3.2c0,1.4,0.2,2.5,0.7,3.3
					C105.2,46.3,105.8,46.6,106.7,46.6z"/>
				<path class="st3" d="M131.7,49.9c-0.4,0-0.7-0.3-1-0.8c-0.2-0.5-0.3-1.5-0.3-2.9c0-0.7,0-1.5,0-2.4c0-0.9-0.1-1.8-0.3-2.7
					c-0.2-0.9-0.4-1.6-0.8-2.1s-0.9-0.8-1.6-0.8c-0.8,0-1.5,0.3-1.9,0.9c-0.4,0.6-0.8,1.4-1,2.3c-0.2,0.9-0.3,1.9-0.5,3
					s-0.3,2-0.5,2.9c-0.2,0.8-0.4,1.4-0.7,1.9c-0.3,0.5-0.7,0.7-1.2,0.7c-0.5,0-0.9-0.3-1.2-0.7c-0.3-0.5-0.6-1.2-0.9-2.1
					c-0.3-1.2-0.6-2.5-0.9-4.1c-0.3-1.6-0.5-3.3-0.7-5.1c-0.2-1.8-0.3-3.6-0.3-5.5c0-2,0.4-3.6,1.3-4.7c0.8-1.1,1.8-1.7,3-1.7
					c0.7,0,1.3,0.2,1.9,0.6s1.2,1,1.6,1.8c0.1,0.2,0.2,0.4,0.3,0.5s0.2,0.2,0.4,0.2s0.3-0.1,0.5-0.3s0.3-0.4,0.5-0.7
					c0.5-0.7,1.1-1.2,1.6-1.6c0.6-0.4,1.3-0.6,2.2-0.6c1,0,1.8,0.3,2.6,1s1.4,1.7,1.9,3.1c0.5,1.4,0.7,3.1,0.7,5.2
					c0,2.1-0.1,4-0.4,5.8c-0.3,1.8-0.7,3.3-1.1,4.7c-0.5,1.3-1,2.4-1.5,3.1C132.8,49.5,132.3,49.9,131.7,49.9z"/>
				<path class="st3" d="M153.7,49.9c-2.3,0-4.2-0.6-5.6-1.7c-1.4-1.1-2.4-3-3-5.5c-0.6-2.5-0.9-5.9-0.9-10c0-2.8,0.1-5.1,0.4-6.9
					c0.3-1.8,0.8-3.3,1.5-4.4c0.7-1.1,1.6-1.8,2.8-2.3c1.2-0.5,2.7-0.7,4.4-0.7c2.9,0,5.5,0.5,7.7,1.6c2.3,1,4,2.6,5.3,4.8
					s1.9,4.8,1.9,8c0,2.2-0.3,4.3-1,6.4c-0.7,2.1-1.6,3.9-2.9,5.5c-1.3,1.6-2.8,2.9-4.6,3.9C158.1,49.4,156,49.9,153.7,49.9z
					 M153,46c1,0,1.9-0.3,2.7-1s1.4-1.6,1.9-2.8c0.5-1.2,0.7-2.5,0.7-4.1c0-2-0.4-3.6-1.3-4.6c-0.9-1-2.1-1.6-3.8-1.6
					c-1.1,0-1.9,0.3-2.5,0.7c-0.6,0.5-0.9,1.2-1.1,2.2c-0.2,1-0.3,2.2-0.3,3.6c0,1.3,0.1,2.6,0.3,3.7c0.2,1.1,0.5,2.1,1.1,2.7
					C151.2,45.6,152,46,153,46z"/>
				<path class="st3" d="M174.1,49.9c-0.5,0-0.9-0.3-1.2-0.8s-0.6-1.2-0.9-2.1c-0.3-1.2-0.6-2.5-0.9-4.1c-0.3-1.6-0.5-3.3-0.7-5.1
					c-0.2-1.8-0.3-3.6-0.3-5.5c0-2,0.4-3.6,1.3-4.7s1.8-1.7,3-1.7c0.7,0,1.3,0.2,1.9,0.6s1.2,1,1.6,1.8c0.1,0.2,0.2,0.4,0.3,0.5
					c0.1,0.1,0.2,0.2,0.4,0.2c0.2,0,0.3-0.1,0.4-0.2s0.3-0.4,0.5-0.6c0.6-0.6,1.1-1.1,1.7-1.6s1.4-0.7,2.5-0.7
					c1.1,0,2.1,0.5,2.9,1.5c0.8,1,1.1,2.3,1.1,3.9c0,1.2-0.1,2.3-0.5,3.3c-0.3,1-0.8,1.8-1.3,2.5s-1.3,0.9-2.2,0.9
					c-0.6,0-1-0.1-1.5-0.4c-0.4-0.2-0.9-0.5-1.3-0.7c-0.4-0.2-0.9-0.4-1.4-0.4c-0.6,0-1,0.3-1.4,0.8c-0.4,0.5-0.7,1.2-0.9,2
					c-0.2,0.8-0.4,1.7-0.5,2.7c-0.1,1-0.3,1.9-0.4,2.8s-0.3,1.7-0.4,2.4c-0.2,0.8-0.4,1.4-0.7,1.9C174.9,49.6,174.5,49.9,174.1,49.9
					z"/>
				<path class="st3" d="M198.4,49.9c-1.8,0-3.4-0.6-4.8-1.7c-1.4-1.1-2.6-2.7-3.5-4.7c-0.9-2-1.3-4.4-1.3-7.1c0-3.4,0.8-6,2.3-7.8
					c1.5-1.8,3.9-2.6,7.1-2.6c3.3,0,5.7,0.9,7.2,2.7c1.5,1.8,2.3,4.4,2.3,7.8c0,2.7-0.4,5-1.3,7.1s-2,3.6-3.4,4.7
					C201.6,49.3,200.1,49.9,198.4,49.9z M198.3,46.6c0.9,0,1.5-0.4,1.9-1.1c0.4-0.8,0.6-1.8,0.6-3.3c0-1.4-0.2-2.4-0.6-3.2
					c-0.4-0.8-1.1-1.1-1.9-1.1c-0.9,0-1.5,0.4-2,1.1c-0.4,0.8-0.6,1.8-0.6,3.2c0,1.4,0.2,2.5,0.6,3.3
					C196.7,46.3,197.4,46.6,198.3,46.6z"/>
				<path class="st3" d="M214.3,57c-0.8,0-1.4-0.3-1.7-1s-0.7-1.6-1-2.8c-0.2-1-0.5-2.2-0.7-3.6s-0.5-2.9-0.7-4.5
					c-0.2-1.6-0.4-3.3-0.5-4.9c-0.1-1.6-0.2-3.2-0.2-4.6c0-3.4,0.4-5.8,1.2-7.3c0.8-1.5,2.1-2.2,3.7-2.2c1.8,0,3.1,0.9,4.1,2.5
					c0.1,0.2,0.2,0.4,0.3,0.5c0.1,0.1,0.2,0.2,0.4,0.2c0.2,0,0.3-0.1,0.4-0.2c0.1-0.1,0.2-0.3,0.3-0.5c0.5-0.8,1.2-1.4,2-1.9
					c0.8-0.4,1.7-0.6,2.6-0.6c1.1,0,2.1,0.3,2.9,0.8s1.4,1.3,2,2.2c0.5,0.9,0.9,1.9,1.1,3.1c0.2,1.1,0.4,2.3,0.4,3.5
					c0,1.6-0.2,3.3-0.6,5c-0.4,1.7-1,3.2-1.8,4.7c-0.8,1.4-1.7,2.6-2.7,3.5s-2.2,1.3-3.5,1.3c-0.9,0-1.7-0.3-2.3-0.9
					c-0.2-0.2-0.4-0.4-0.6-0.5c-0.2-0.2-0.4-0.2-0.6-0.2c-0.4,0-0.6,0.2-0.8,0.7c-0.1,0.8-0.3,1.5-0.4,2.1s-0.3,1.3-0.5,2.1
					c-0.3,1.2-0.7,2.2-1.1,2.9C215.7,56.6,215.1,57,214.3,57z M220,45c0.7,0,1.3-0.2,1.8-0.7s0.8-1,1.1-1.7s0.3-1.2,0.3-1.7
					c0-0.7-0.2-1.3-0.6-1.8c-0.4-0.5-1.1-0.7-2-0.7c-0.8,0-1.4,0.3-1.9,0.7c-0.5,0.5-0.7,1.4-0.7,2.7c0,1,0.2,1.8,0.5,2.4
					C218.7,44.7,219.3,45,220,45z"/>
			</g>
		</g>
	</g>
</g>
</svg>
