<?xml version="1.0" encoding="utf-8"?>
<!-- Generator: Adobe Illustrator 24.1.2, SVG Export Plug-In . SVG Version: 6.00 Build 0)  -->
<svg version="1.1" xmlns="http://www.w3.org/2000/svg" xmlns:xlink="http://www.w3.org/1999/xlink" x="0px" y="0px"
	 viewBox="0 0 430.54 100.68" style="enable-background:new 0 0 430.54 100.68;" xml:space="preserve">
<style type="text/css">
	.st0{fill:#FFFFFF;}
	.st1{fill:#4894D0;}
	.st2{fill:#FFDF4D;}
</style>
<g id="Layer_2">
	<g>
		<path class="st0" d="M29.45,83.18c-6.63,0-12.08-1.64-16.21-4.86C8.94,74.96,5.88,70,4.15,63.58c-1.47-5.46-2.22-12.13-2.22-19.83
			c0-6.23,0.38-11.62,1.13-16.01c0.81-4.7,1.89-8.52,3.33-11.66c1.5-3.3,3.26-5.97,5.24-7.92c2.06-2.04,4.27-3.47,6.58-4.24
			c1.99-0.66,3.94-1,5.8-1c3.87,0,7.2,0.95,9.92,2.83c2.77,1.92,4.88,4.47,6.25,7.6c1.29,2.92,1.94,5.97,1.94,9.08
			c0,2.84-0.5,5.86-1.52,9.22c-0.84,2.76-1.89,5.68-3.13,8.68c-1.15,2.8-2.37,5.65-3.6,8.46c-1.12,2.55-2.11,5.02-2.93,7.32
			c-0.48,1.35-0.84,2.57-1.08,3.66c0.06,0,0.13,0,0.2,0c0.96,0,1.43-0.13,1.56-0.18l2.92-2.16c2.23-1.64,4.34-2.44,6.46-2.44
			c0.52,0,1.04,0.05,1.54,0.15c2.33,0.47,4.29,1.65,5.82,3.5c1.02,1.24,1.72,2.35,2.21,3.48c1.02,2.5,1.77,6.38-0.33,11.04
			c-1.36,3.02-3.74,5.45-7.06,7.21l-0.13,0.07c-1.89,0.93-4.05,1.62-6.45,2.08C34.35,82.96,31.94,83.18,29.45,83.18z"/>
		<path class="st0" d="M65.05,83.18c-8.83,0-15.66-3.11-20.3-9.26c-4.43-5.86-6.68-13.93-6.68-23.97c0-3.83,0.35-7.5,1.05-10.92
			c0.77-3.78,2.07-7.21,3.87-10.2c1.97-3.28,4.62-5.85,7.86-7.65c3.1-1.71,6.81-2.58,11.04-2.58c5.3,0,9.92,1.17,13.74,3.49
			c4.01,2.43,7.11,5.84,9.22,10.12c2.05,4.17,3.09,8.84,3.09,13.89c0,3.17-0.63,6.34-1.88,9.4c-1.1,2.71-2.71,5.17-4.79,7.33
			c0.13,0.29,0.26,0.59,0.37,0.89c1.34,3.36,1.18,7.13-0.46,10.64c-1.34,2.85-3.26,4.97-5.73,6.3c-1.32,0.7-2.71,1.28-4.12,1.73
			C69.68,82.92,67.63,83.18,65.05,83.18z"/>
		<path class="st0" d="M134.17,83.18c-3.3,0-6.21-2.2-7.78-5.88c-0.83-1.94-1.27-4.36-1.37-7.7c-0.02,0.06-0.04,0.11-0.05,0.17
			c-1.02,3.13-2.3,5.84-3.81,8.07c-2.33,3.45-5.49,5.34-8.88,5.34c-2.98,0-5.66-1.52-7.36-4.16c-1.12-1.75-1.85-3.86-2.18-6.28
			c-0.01-0.06-0.02-0.12-0.02-0.18c-0.61,2.61-1.41,4.6-2.49,6.16c-1.51,2.18-3.27,3.55-5.23,4.07c-1.02,0.27-1.8,0.39-2.53,0.39
			c-3.15,0-6.04-1.92-7.91-5.28c-0.95-1.71-1.77-3.68-2.44-5.86c-0.55-1.86-1.07-4.14-1.57-6.82c-0.47-2.52-0.91-5.24-1.31-8.08
			c-0.4-2.85-0.73-5.67-0.99-8.4c-0.27-2.88-0.41-5.49-0.41-7.74c0-6.89,1.23-12.09,3.77-15.89c2.81-4.2,6.83-6.52,11.32-6.52
			c2.6,0,5.07,0.71,7.32,2.12c0.74,0.46,1.44,1,2.1,1.6c0.65-0.55,1.29-1.05,1.92-1.48c2.16-1.48,4.6-2.23,7.26-2.23
			c3.01,0,5.82,0.88,8.36,2.62c0.69,0.48,1.34,0.99,1.95,1.53c0.63-0.57,1.26-1.1,1.88-1.57c2.25-1.71,4.83-2.58,7.69-2.58
			c3.51,0,6.8,1.19,9.8,3.53c2.96,2.31,5.3,5.76,6.97,10.26c1.52,4.1,2.29,9.21,2.29,15.2c0,3.94-0.34,7.87-1.01,11.69
			c-0.67,3.8-1.58,7.31-2.7,10.42c-1.23,3.41-2.6,6.14-4.17,8.33C139.55,82.29,136.33,83.18,134.17,83.18z"/>
		<path class="st0" d="M167.21,83.18c-4.92,0-9.48-1.59-13.53-4.72c-3.93-3.04-7.1-7.31-9.4-12.69c-2.24-5.23-3.38-11.32-3.38-18.09
			c0-9.08,2.22-16.27,6.59-21.38c4.37-5.11,10.87-7.7,19.32-7.7c8.55,0,15.11,2.63,19.48,7.81c4.35,5.15,6.56,12.36,6.56,21.42
			c0,6.68-1.09,12.7-3.24,17.89c-2.22,5.36-5.29,9.62-9.13,12.68C176.5,81.57,172.03,83.18,167.21,83.18z"/>
		<path class="st0" d="M218.39,83.18c-3.28,0-6.2-2.12-7.79-5.67c-0.97-2.16-1.43-4.96-1.46-9.01c-0.21,1.27-0.46,2.49-0.75,3.65
			c-0.58,2.55-1.46,4.75-2.62,6.52c-1.91,2.91-4.6,4.51-7.6,4.51c-3,0-5.72-1.57-7.66-4.43c-1.22-1.79-2.18-4.04-2.92-6.88
			c-0.64-2.65-1.28-5.68-1.92-9.08c-0.64-3.44-1.18-7.18-1.61-11.1c-0.44-4.02-0.66-8.14-0.66-12.26c0-6.07,1.42-11.04,4.21-14.77
			c2.98-3.97,6.79-6.07,11.02-6.07c2.49,0,4.89,0.72,7.13,2.15c0.66,0.42,1.3,0.91,1.91,1.45c0.63-0.54,1.28-1.03,1.94-1.46
			c2.19-1.42,4.77-2.14,7.69-2.14c3.41,0,6.55,1.23,9.31,3.65c2.57,2.25,4.6,5.48,6.03,9.59c1.3,3.73,1.96,8.29,1.96,13.56
			c0,4.68-0.33,9.14-0.98,13.24c-0.66,4.16-1.57,7.89-2.7,11.11c-1.25,3.55-2.63,6.33-4.23,8.49
			C223.71,82.32,220.53,83.18,218.39,83.18z"/>
		<path class="st0" d="M263.59,83.18c-6.1,0-11.22-1.66-15.19-4.92c-4.11-3.37-7.06-8.6-8.75-15.54
			c-1.44-5.89-2.17-13.54-2.17-22.73c0-6.19,0.34-11.48,1.02-15.71c0.79-4.97,2.24-9.08,4.29-12.22c2.24-3.43,5.24-5.9,8.92-7.33
			c3.12-1.22,6.79-1.81,11.21-1.81c6.76,0,12.93,1.28,18.33,3.8c5.8,2.72,10.46,6.91,13.85,12.47c3.46,5.67,5.22,12.7,5.22,20.88
			c0,5.45-0.83,10.79-2.47,15.88c-1.65,5.12-4.08,9.77-7.22,13.82c-3.19,4.11-7.11,7.41-11.63,9.8
			C274.44,81.96,269.26,83.18,263.59,83.18z M262.12,59.78c0.69,0,1.21-0.18,1.73-0.62c0.71-0.59,1.26-1.43,1.75-2.66
			c0.56-1.4,0.84-3.13,0.84-5.13c0-2.92-0.59-3.97-0.84-4.28c-0.44-0.54-1.48-0.84-2.94-0.84c-0.48,0-0.82,0.04-1.05,0.07
			c0,0.02-0.01,0.04-0.01,0.07c-0.28,1.38-0.43,3.32-0.43,5.61c0,2.29,0.15,4.39,0.46,6.26c0.12,0.73,0.27,1.21,0.4,1.52
			C262.04,59.77,262.08,59.78,262.12,59.78z"/>
		<path class="st0" d="M305.37,83.18c-3.03,0-5.76-1.61-7.71-4.54c-1.2-1.8-2.14-4.04-2.87-6.85c-0.65-2.67-1.29-5.7-1.92-9.08
			c-0.64-3.45-1.18-7.18-1.61-11.1c-0.44-4.01-0.66-8.14-0.66-12.26c0-6.09,1.43-11.06,4.23-14.76c2.97-3.92,6.77-6,10.99-6
			c2.46,0,4.83,0.69,7.05,2.06c0.8,0.49,1.56,1.07,2.27,1.74c0.49-0.42,0.98-0.82,1.48-1.19c2.32-1.75,5.15-2.6,8.67-2.6
			c4.21,0,7.92,1.88,10.74,5.45c2.71,3.44,4.09,7.88,4.09,13.19c0,3.3-0.44,6.45-1.3,9.36c-1,3.37-2.55,6.16-4.6,8.29
			c-2.44,2.53-5.42,3.82-8.86,3.82c-2.08,0-4.04-0.49-5.82-1.46c-0.48-0.26-0.96-0.52-1.44-0.79c-0.31,1.25-0.57,2.62-0.77,4.09
			c-0.26,1.94-0.5,3.83-0.72,5.66c-0.26,2.21-0.62,4.2-1.06,5.9c-0.57,2.5-1.43,4.67-2.56,6.45
			C311.15,81.49,308.36,83.18,305.37,83.18z"/>
		<path class="st0" d="M355.34,83.18c-4.92,0-9.47-1.59-13.53-4.72c-3.93-3.04-7.1-7.31-9.4-12.69c-2.24-5.24-3.38-11.32-3.38-18.09
			c0-9.08,2.22-16.27,6.59-21.38c4.37-5.11,10.87-7.69,19.32-7.69c8.55,0,15.11,2.63,19.48,7.81c4.35,5.15,6.56,12.36,6.56,21.42
			c0,6.68-1.09,12.7-3.24,17.89c-2.22,5.36-5.29,9.63-9.13,12.68C364.63,81.57,360.16,83.18,355.34,83.18z"/>
		<path class="st0" d="M388.12,97.77c-3.84,0-7.16-2.08-9.11-5.7c-1.11-2.05-2.02-4.58-2.78-7.73c-0.53-2.2-1.08-4.87-1.62-7.94
			c-0.54-3.04-1.04-6.33-1.48-9.8c-0.44-3.45-0.8-6.98-1.08-10.49c-0.29-3.59-0.43-7.03-0.43-10.24c0-8.61,1.19-14.91,3.63-19.26
			c2.9-5.17,7.54-8.01,13.08-8.01c3.8,0,7.18,1.3,9.96,3.78c0.84-0.67,1.73-1.26,2.68-1.76c2.53-1.34,5.26-2.02,8.12-2.02
			c3.46,0,6.56,0.92,9.21,2.74c2.51,1.73,4.59,4.06,6.2,6.92c1.45,2.59,2.52,5.51,3.19,8.66c0.62,2.92,0.93,5.96,0.93,9.02
			c0,4.04-0.52,8.19-1.53,12.31c-1.02,4.12-2.48,7.99-4.37,11.51c-2.02,3.77-4.5,6.89-7.37,9.28c-3.3,2.74-7.01,4.12-11.03,4.12
			c-1.29,0-2.53-0.18-3.71-0.52c-0.12,0.54-0.26,1.09-0.4,1.66c-0.84,3.41-1.86,6.1-3.14,8.19
			C394.99,95.9,391.82,97.77,388.12,97.77z"/>
		<path class="st1" d="M29.45,79.35c-5.97,0-10.81-1.42-14.39-4.22C11.4,72.27,8.78,68,7.28,62.43c-1.37-5.08-2.07-11.37-2.07-18.68
			c0-5.98,0.36-11.11,1.07-15.26c0.74-4.33,1.73-7.8,3.01-10.62c1.31-2.87,2.81-5.16,4.47-6.81c1.7-1.68,3.5-2.85,5.36-3.47
			c1.7-0.57,3.35-0.85,4.9-0.85c3.27,0,6.05,0.77,8.25,2.3c2.23,1.54,3.92,3.58,5.01,6.05c1.04,2.37,1.57,4.83,1.57,7.32
			c0,2.39-0.44,4.99-1.33,7.94c-0.8,2.63-1.81,5.43-2.99,8.3c-1.15,2.78-2.35,5.6-3.57,8.36c-1.16,2.64-2.19,5.2-3.05,7.6
			c-0.79,2.22-1.31,4.19-1.53,5.87c-0.12,0.9-0.08,1.61,0.1,1.96c0.14,0.2,0.39,0.48,0.96,0.69c0.82,0.3,1.7,0.45,2.61,0.45
			c1.97,0,2.86-0.44,3.21-0.7l3.03-2.24c1.68-1.24,3.22-1.85,4.7-1.85c0.34,0,0.67,0.03,0.99,0.1c1.62,0.33,2.97,1.13,4,2.38
			c0.78,0.96,1.31,1.76,1.64,2.54c0.69,1.68,1.17,4.29-0.3,7.54c-1.02,2.25-2.87,4.11-5.51,5.51l-0.09,0.04
			c-1.61,0.79-3.52,1.4-5.67,1.82C33.99,79.15,31.76,79.35,29.45,79.35z"/>
		<path class="st1" d="M65.05,79.35c-7.85,0-13.85-2.68-17.84-7.96c-3.89-5.14-5.86-12.36-5.86-21.44c0-3.53,0.32-6.9,0.96-10.03
			c0.68-3.31,1.81-6.3,3.36-8.88c1.64-2.73,3.86-4.88,6.58-6.39c2.65-1.47,5.89-2.21,9.64-2.21c4.77,0,8.88,1.03,12.22,3.06
			c3.44,2.09,6.09,4.99,7.88,8.63c1.76,3.58,2.65,7.61,2.65,11.98c0,2.6-0.52,5.21-1.56,7.76c-1.04,2.55-2.64,4.87-4.76,6.87
			c-0.56,0.53-1.15,1.02-1.79,1.49c0.91,0.72,1.63,1.77,2.11,3.08c0.91,2.24,0.79,4.8-0.35,7.22c-0.99,2.12-2.41,3.68-4.22,4.66
			c-1.15,0.61-2.36,1.12-3.61,1.51C69.11,79.14,67.33,79.35,65.05,79.35z M61.12,52.43c0.07,0.02,0.19,0.04,0.38,0.04
			c0.08,0,0.11,0,0.23-0.12c0.38-0.39,0.68-0.83,0.91-1.37c0.26-0.58,0.28-0.88,0.28-0.96c0-0.26-0.02-0.43-0.04-0.53
			c-0.13-0.04-0.39-0.11-0.85-0.11c-0.35,0-0.53,0.05-0.6,0.07c-0.05,0.07-0.1,0.16-0.14,0.33c-0.14,0.67-0.21,1.38-0.21,2.11
			C61.08,52.16,61.1,52.33,61.12,52.43z"/>
		<path class="st1" d="M134.17,79.35c-2.06,0-3.82-1.37-4.85-3.76c-0.72-1.67-1.05-4.11-1.05-7.67c0-1.67-0.03-3.46-0.1-5.33
			c-0.06-1.68-0.23-3.26-0.52-4.69c-0.21-1.05-0.54-1.88-0.98-2.46c-0.07-0.1-0.23-0.3-0.89-0.3c-0.28,0-0.44,0.04-0.51,0.06
			c-0.27,0.38-0.47,0.9-0.6,1.55c-0.27,1.3-0.53,2.62-0.8,3.97c-0.47,2.52-1.14,5.14-1.98,7.71c-0.9,2.76-2.02,5.14-3.32,7.05
			c-2.18,3.21-4.63,3.89-6.3,3.89c-1.97,0-3.65-0.93-4.74-2.63c-0.79-1.24-1.32-2.78-1.56-4.57c-0.18-1.36-0.27-2.79-0.27-4.24
			c0-1.76-0.03-3.63-0.1-5.53c-0.06-1.68-0.24-3.24-0.54-4.62c-0.22-1.01-0.55-1.8-0.98-2.34c-0.19-0.25-0.66-0.3-1.01-0.3
			c-0.38,0-0.83,0.06-0.94,0.24c-0.44,0.67-0.75,1.65-0.93,2.91c-0.25,1.76-0.44,3.67-0.57,5.69c-0.15,2.35-0.45,4.61-0.89,6.69
			c-0.52,2.56-1.18,4.38-2.07,5.67c-1.05,1.52-2.16,2.41-3.4,2.74c-0.77,0.2-1.32,0.29-1.8,0.29c-1.19,0-3.44-0.46-5.17-3.54
			c-0.81-1.45-1.51-3.15-2.09-5.05c-0.5-1.69-0.99-3.82-1.46-6.35c-0.46-2.45-0.89-5.11-1.27-7.88c-0.39-2.78-0.71-5.54-0.96-8.2
			c-0.26-2.74-0.39-5.21-0.39-7.32c0-6,1.01-10.43,3.08-13.53c2.21-3.3,5.23-5.04,8.73-5.04c2.06,0,4,0.56,5.78,1.67
			c1.33,0.83,2.49,1.94,3.47,3.32c1.28-1.34,2.54-2.45,3.76-3.28c1.65-1.13,3.53-1.71,5.59-1.71c2.42,0,4.67,0.71,6.7,2.1
			c1.41,0.97,2.59,2.08,3.53,3.32c1.29-1.37,2.56-2.53,3.76-3.45c1.7-1.3,3.69-1.96,5.89-1.96c2.84,0,5.53,0.97,7.97,2.88
			c2.42,1.9,4.37,4.79,5.79,8.6c1.34,3.61,2.02,8.21,2.02,13.68c0,3.68-0.32,7.36-0.94,10.92c-0.62,3.55-1.47,6.82-2.51,9.7
			c-1.1,3.05-2.3,5.46-3.67,7.36C138.29,78.08,136.3,79.35,134.17,79.35z"/>
		<path class="st1" d="M167.21,79.35c-4.27,0-8.21-1.38-11.72-4.09c-3.45-2.66-6.23-6.43-8.28-11.21
			c-2.01-4.7-3.03-10.21-3.03-16.38c0-8.03,1.89-14.31,5.63-18.67c3.73-4.36,9.45-6.57,17-6.57c7.64,0,13.41,2.24,17.15,6.67
			c3.72,4.41,5.61,10.71,5.61,18.73c0,6.1-0.98,11.56-2.91,16.22c-1.97,4.75-4.67,8.51-8.02,11.18
			C175.2,77.96,171.36,79.35,167.21,79.35z M166.94,54.72c-0.95,0-1.16,0.37-1.31,0.63c-0.35,0.61-0.78,1.87-0.78,4.4
			c0,2.67,0.43,3.99,0.79,4.62c0.16,0.29,0.37,0.65,1.3,0.65c0.8,0,1.02-0.28,1.23-0.65c0.51-0.89,0.79-2.53,0.79-4.62
			c0-2.53-0.42-3.79-0.78-4.4C167.99,55.01,167.76,54.72,166.94,54.72z"/>
		<path class="st1" d="M218.39,79.35c-2.07,0-3.85-1.32-4.89-3.62c-0.75-1.66-1.08-4.03-1.08-7.66c0-1.41-0.02-3.02-0.07-4.91
			c-0.04-1.64-0.21-3.24-0.5-4.77c-0.23-1.2-0.58-2.15-1.04-2.83c-0.06-0.09-0.19-0.28-0.82-0.28c-1.11,0-1.39,0.39-1.5,0.54
			c-0.58,0.79-1.01,1.87-1.29,3.2c-0.37,1.79-0.66,3.69-0.87,5.67c-0.24,2.32-0.61,4.49-1.1,6.44c-0.47,2.08-1.16,3.84-2.06,5.22
			c-1.27,1.93-3.04,3-4.99,3c-2,0-3.76-1.03-5.09-2.98c-0.96-1.41-1.73-3.25-2.35-5.62c-0.62-2.54-1.23-5.47-1.85-8.78
			c-0.62-3.33-1.15-6.96-1.56-10.76c-0.42-3.86-0.63-7.82-0.63-11.77c0-5.12,1.14-9.24,3.4-12.25c2.33-3.11,5.29-4.76,8.55-4.76
			c1.93,0,3.81,0.57,5.56,1.68c1.26,0.8,2.39,1.89,3.39,3.25c1.1-1.32,2.32-2.43,3.63-3.27c1.7-1.1,3.75-1.66,6.09-1.66
			c2.69,0,5.16,0.97,7.34,2.88c2.09,1.83,3.76,4.51,4.96,7.97c1.14,3.27,1.72,7.35,1.72,12.11c0,4.44-0.31,8.66-0.93,12.54
			c-0.62,3.9-1.47,7.39-2.51,10.36c-1.11,3.16-2.31,5.6-3.68,7.44C222.47,78.13,220.5,79.35,218.39,79.35z"/>
		<path class="st1" d="M263.59,79.35c-5.41,0-9.89-1.42-13.31-4.23c-3.48-2.86-6-7.39-7.48-13.46c-1.35-5.55-2.04-12.84-2.04-21.68
			c0-5.96,0.32-11.01,0.96-15.01c0.7-4.37,1.93-7.94,3.67-10.6c1.83-2.81,4.3-4.83,7.35-6.02c2.78-1.08,6.11-1.61,10.17-1.61
			c6.34,0,12.1,1.19,17.11,3.53c5.2,2.44,9.38,6.18,12.4,11.14c3.06,5.01,4.61,11.29,4.61,18.65c0,4.99-0.76,9.88-2.26,14.53
			c-1.51,4.67-3.72,8.91-6.58,12.59c-2.89,3.72-6.44,6.71-10.55,8.88C273.51,78.24,268.79,79.35,263.59,79.35z M262.65,42.41
			c-2.09,0-2.9,0.52-3.15,0.74c-0.53,0.47-0.89,1.24-1.12,2.35c-0.34,1.69-0.52,3.87-0.52,6.49c0,2.53,0.17,4.87,0.51,6.97
			c0.27,1.65,0.74,2.93,1.41,3.81c0.16,0.21,0.63,0.83,2.32,0.83c1.37,0,2.56-0.43,3.64-1.33c1.17-0.97,2.09-2.34,2.82-4.17
			c0.76-1.91,1.14-4.18,1.14-6.74c0-3.16-0.58-5.48-1.73-6.9C266.88,43.08,265.13,42.41,262.65,42.41z"/>
		<path class="st1" d="M305.37,79.35c-1.99,0-3.81-1.08-5.11-3.05c-0.95-1.43-1.71-3.27-2.32-5.62c-0.61-2.53-1.23-5.46-1.85-8.77
			c-0.62-3.34-1.15-6.96-1.56-10.76c-0.42-3.86-0.63-7.82-0.63-11.78c0-5.13,1.15-9.24,3.41-12.22c2.33-3.08,5.28-4.7,8.54-4.7
			c1.92,0,3.78,0.54,5.53,1.62c1.34,0.82,2.54,1.99,3.59,3.47c1.12-1.16,2.29-2.2,3.47-3.1c1.77-1.34,4.02-1.99,6.89-1.99
			c3.27,0,6.15,1.46,8.32,4.22c2.14,2.71,3.22,6.27,3.22,10.6c0,2.87-0.38,5.6-1.12,8.11c-0.81,2.74-2.05,4.98-3.68,6.67
			c-1.82,1.89-4.07,2.85-6.68,2.85c-1.6,0-3.09-0.37-4.44-1.1c-0.93-0.51-1.85-1.01-2.74-1.52c-0.42-0.24-0.94-0.36-1.55-0.36
			c-0.16,0-0.2,0-0.36,0.22c-0.48,0.68-0.89,1.63-1.2,2.84c-0.4,1.52-0.73,3.2-0.97,5c-0.27,1.96-0.51,3.87-0.73,5.73
			c-0.24,2.05-0.57,3.85-0.97,5.38c-0.46,2.06-1.15,3.81-2.04,5.2C309.13,78.26,307.34,79.35,305.37,79.35z"/>
		<path class="st1" d="M355.34,79.35c-4.27,0-8.21-1.38-11.72-4.09c-3.45-2.66-6.23-6.43-8.28-11.21
			c-2.01-4.7-3.03-10.21-3.03-16.38c0-8.03,1.89-14.31,5.63-18.67c3.73-4.36,9.45-6.57,17-6.57c7.64,0,13.41,2.24,17.15,6.67
			c3.73,4.41,5.61,10.71,5.61,18.73c0,6.1-0.98,11.55-2.91,16.22c-1.97,4.75-4.67,8.51-8.02,11.18
			C363.34,77.96,359.49,79.35,355.34,79.35z M355.07,54.72c-0.95,0-1.16,0.36-1.31,0.63c-0.36,0.61-0.78,1.87-0.78,4.4
			c0,2.67,0.43,3.99,0.79,4.62c0.17,0.29,0.37,0.65,1.3,0.65c0.8,0,1.02-0.28,1.23-0.65c0.36-0.63,0.79-1.95,0.79-4.62
			c0-2.53-0.42-3.79-0.78-4.4C356.12,55.01,355.89,54.72,355.07,54.72z"/>
		<path class="st1" d="M388.12,93.93c-2.73,0-4.98-1.39-6.34-3.91c-0.94-1.74-1.72-3.94-2.4-6.73c-0.51-2.12-1.04-4.7-1.57-7.68
			c-0.53-2.98-1.01-6.21-1.44-9.59c-0.43-3.37-0.79-6.83-1.06-10.28c-0.28-3.47-0.42-6.8-0.42-9.88c0-7.84,1.01-13.46,3.09-17.16
			c2.3-4.11,5.88-6.28,10.33-6.28c4,0,7.36,1.73,9.82,5.04c1.18-1.4,2.58-2.52,4.17-3.36c2.1-1.11,4.38-1.68,6.76-1.68
			c2.87,0,5.4,0.75,7.54,2.22c2.07,1.42,3.79,3.35,5.11,5.72c1.25,2.24,2.18,4.75,2.76,7.49c0.55,2.62,0.83,5.35,0.83,8.1
			c0,3.69-0.47,7.47-1.4,11.25c-0.93,3.78-2.28,7.32-4,10.54c-1.79,3.34-3.97,6.1-6.49,8.19c-2.73,2.27-5.8,3.42-9.12,3.42
			c-2.24,0-4.26-0.67-6.01-1.98c-0.09,0.47-0.17,0.91-0.25,1.33c-0.24,1.33-0.58,2.85-1,4.55c-0.74,3-1.61,5.3-2.66,7.04
			C392.93,92.67,390.76,93.93,388.12,93.93z M399.08,56.09c0,0-0.36,0.59-0.36,2.64c0,1.76,0.32,2.49,0.46,2.72
			c0.01,0.02,0.15,0.11,0.56,0.11c0.83,0,1.21-0.28,1.45-0.52c0.57-0.57,0.98-1.23,1.26-2.01c0.38-1.07,0.46-1.74,0.46-2.11
			c0-0.55-0.13-0.74-0.29-0.91c-0.04-0.04-0.44-0.43-1.87-0.43C399.95,55.58,399.39,55.75,399.08,56.09L399.08,56.09z"/>
		<g>
			<g>
				<path class="st2" d="M29.45,75.52c-5.33,0-9.52-1.19-12.56-3.57c-3.05-2.38-5.21-5.93-6.48-10.67
					C9.14,56.55,8.5,50.71,8.5,43.75c0-5.75,0.34-10.59,1.01-14.51c0.67-3.92,1.57-7.11,2.69-9.57c1.12-2.46,2.35-4.35,3.69-5.69
					c1.34-1.33,2.72-2.24,4.13-2.71c1.41-0.47,2.74-0.71,4-0.71c2.69,0,4.88,0.59,6.58,1.76c1.7,1.18,2.95,2.68,3.76,4.51
					c0.81,1.83,1.21,3.69,1.21,5.57c0,1.93-0.38,4.16-1.14,6.67c-0.76,2.51-1.71,5.15-2.85,7.92c-1.14,2.77-2.32,5.53-3.53,8.27
					c-1.21,2.74-2.26,5.37-3.16,7.88c-0.9,2.51-1.48,4.76-1.75,6.74c-0.27,1.99-0.04,3.58,0.67,4.78c0.63,0.99,1.51,1.7,2.65,2.12
					c1.14,0.42,2.34,0.63,3.59,0.63c2.15,0,3.81-0.43,4.97-1.29c1.16-0.86,2.17-1.61,3.02-2.24c1.34-0.99,2.47-1.4,3.39-1.22
					c0.92,0.18,1.65,0.6,2.18,1.25c0.54,0.65,0.9,1.19,1.07,1.61c0.49,1.2,0.4,2.55-0.27,4.04c-0.67,1.49-1.99,2.76-3.96,3.8
					c-1.39,0.68-3.03,1.2-4.94,1.57C33.63,75.33,31.6,75.52,29.45,75.52z"/>
				<path class="st2" d="M65.05,75.52c-6.9,0-12.02-2.22-15.38-6.67c-3.36-4.44-5.04-10.74-5.04-18.9c0-3.24,0.29-6.29,0.87-9.14
					c0.58-2.85,1.53-5.37,2.85-7.57c1.32-2.2,3.09-3.91,5.31-5.14c2.22-1.23,4.96-1.84,8.23-1.84c4.25,0,7.82,0.88,10.71,2.63
					c2.89,1.75,5.07,4.13,6.55,7.14c1.48,3.01,2.22,6.37,2.22,10.08c0,2.04-0.41,4.08-1.24,6.12c-0.83,2.04-2.12,3.88-3.86,5.53
					c-1.75,1.65-3.95,2.98-6.62,4c-2.66,1.02-5.86,1.53-9.57,1.53c-0.99,0-1.66,0.16-2.02,0.47c-0.36,0.31-0.54,0.76-0.54,1.33
					c0,1.2,0.45,2.04,1.34,2.51c0.9,0.47,1.95,0.71,3.16,0.71c1.21,0,2.24-0.05,3.09-0.16c1.03-0.1,2-0.34,2.92-0.71
					c0.92-0.37,1.91-0.97,2.99-1.8c0.76-0.63,1.62-0.86,2.59-0.71c0.96,0.16,1.65,0.81,2.05,1.96c0.49,1.15,0.41,2.42-0.24,3.8
					c-0.65,1.39-1.56,2.39-2.72,3.02c-0.99,0.52-2.01,0.95-3.09,1.29C68.54,75.35,67.02,75.52,65.05,75.52z M61.49,56.3
					c0.9,0,1.69-0.35,2.38-1.06c0.69-0.71,1.25-1.54,1.68-2.51c0.43-0.97,0.64-1.87,0.64-2.71c0-2.98-1.39-4.47-4.16-4.47
					c-1.16,0-2.06,0.31-2.69,0.94c-0.63,0.63-1.04,1.43-1.24,2.39c-0.2,0.97-0.3,1.97-0.3,3.02c0,1.46,0.34,2.56,1.01,3.29
					C59.48,55.94,60.37,56.3,61.49,56.3z"/>
				<path class="st2" d="M112.27,75.52c-0.94,0-1.65-0.37-2.12-1.1c-0.47-0.73-0.78-1.69-0.94-2.86c-0.16-1.18-0.23-2.39-0.23-3.65
					c0-1.83-0.03-3.73-0.1-5.69c-0.07-1.96-0.28-3.76-0.64-5.41c-0.36-1.65-0.94-2.98-1.75-4c-0.81-1.02-1.95-1.53-3.43-1.53
					c-1.61,0-2.8,0.59-3.56,1.76c-0.76,1.18-1.28,2.71-1.54,4.59c-0.27,1.88-0.47,3.9-0.6,6.04c-0.13,2.14-0.4,4.16-0.81,6.04
					c-0.4,1.99-0.89,3.39-1.44,4.2c-0.56,0.81-1.09,1.28-1.58,1.41c-0.49,0.13-0.85,0.2-1.08,0.2c-0.94,0-1.75-0.6-2.42-1.8
					c-0.67-1.2-1.25-2.61-1.75-4.24c-0.45-1.52-0.9-3.48-1.34-5.88c-0.45-2.4-0.86-4.97-1.24-7.69c-0.38-2.72-0.69-5.38-0.94-8
					c-0.25-2.61-0.37-4.91-0.37-6.9c0-5.07,0.79-8.8,2.38-11.18c1.59-2.38,3.64-3.57,6.15-3.57c1.52,0,2.93,0.41,4.23,1.22
					c1.3,0.81,2.37,2,3.22,3.57c0.22,0.42,0.44,0.77,0.64,1.06c0.2,0.29,0.46,0.43,0.77,0.43c0.36,0,0.67-0.16,0.94-0.47
					c0.27-0.31,0.69-0.78,1.28-1.41c1.25-1.36,2.45-2.43,3.59-3.22c1.14-0.78,2.45-1.18,3.93-1.18c1.84,0,3.51,0.52,5.04,1.57
					c1.52,1.05,2.66,2.25,3.42,3.61c0.22,0.37,0.43,0.71,0.6,1.02c0.18,0.31,0.45,0.47,0.81,0.47c0.36,0,0.67-0.16,0.94-0.47
					c0.27-0.31,0.69-0.78,1.28-1.41c1.3-1.41,2.53-2.56,3.69-3.45c1.16-0.89,2.53-1.33,4.1-1.33c2.19,0,4.24,0.75,6.14,2.24
					c1.9,1.49,3.44,3.8,4.6,6.94c1.16,3.14,1.75,7.19,1.75,12.16c0,3.45-0.29,6.84-0.87,10.16c-0.58,3.32-1.36,6.31-2.32,8.98
					c-0.96,2.67-2.01,4.8-3.16,6.39c-1.14,1.59-2.27,2.39-3.39,2.39c-0.81,0-1.44-0.55-1.91-1.65c-0.47-1.1-0.71-3.08-0.71-5.96
					c0-1.73-0.03-3.56-0.1-5.49c-0.07-1.93-0.27-3.74-0.6-5.41c-0.33-1.67-0.91-3.05-1.71-4.12c-0.81-1.07-1.93-1.61-3.36-1.61
					c-1.3,0-2.27,0.43-2.92,1.29c-0.65,0.86-1.11,1.95-1.38,3.25c-0.27,1.31-0.54,2.64-0.81,4c-0.45,2.41-1.06,4.81-1.85,7.21
					c-0.78,2.41-1.72,4.42-2.82,6.04C114.9,74.7,113.66,75.52,112.27,75.52z"/>
				<path class="st2" d="M167.21,75.52c-3.63,0-6.93-1.15-9.91-3.45c-2.98-2.3-5.36-5.54-7.15-9.72c-1.79-4.18-2.69-9.07-2.69-14.67
					c0-7.01,1.56-12.33,4.67-15.96c3.11-3.63,8-5.45,14.68-5.45c6.76,0,11.7,1.84,14.81,5.53c3.11,3.69,4.67,9.03,4.67,16.04
					c0,5.54-0.86,10.39-2.59,14.55c-1.72,4.16-4.03,7.39-6.92,9.69C173.89,74.37,170.7,75.52,167.21,75.52z M166.94,68.85
					c1.75,0,3.07-0.78,3.96-2.35c0.89-1.57,1.34-3.82,1.34-6.74c0-2.82-0.45-5.01-1.34-6.55c-0.9-1.54-2.22-2.31-3.96-2.31
					c-1.79,0-3.13,0.77-4.03,2.31c-0.9,1.54-1.34,3.73-1.34,6.55c0,2.93,0.45,5.18,1.34,6.74
					C163.81,68.07,165.15,68.85,166.94,68.85z"/>
				<path class="st2" d="M218.39,75.52c-0.85,0-1.51-0.52-1.98-1.57c-0.47-1.05-0.71-3.01-0.71-5.88c0-1.46-0.02-3.14-0.07-5.02
					c-0.05-1.88-0.23-3.71-0.57-5.49c-0.34-1.78-0.9-3.24-1.68-4.39c-0.78-1.15-1.91-1.73-3.39-1.73c-1.75,0-3.08,0.63-4,1.88
					c-0.92,1.25-1.58,2.85-1.98,4.78c-0.4,1.93-0.72,3.97-0.94,6.12c-0.22,2.14-0.56,4.11-1.01,5.88c-0.36,1.62-0.86,2.93-1.51,3.92
					c-0.65,0.99-1.44,1.49-2.38,1.49c-0.99,0-1.82-0.51-2.52-1.53c-0.69-1.02-1.29-2.47-1.78-4.35c-0.58-2.4-1.18-5.23-1.78-8.47
					c-0.6-3.24-1.11-6.72-1.51-10.43c-0.4-3.71-0.6-7.48-0.6-11.29c0-4.18,0.86-7.42,2.59-9.72c1.72-2.3,3.75-3.45,6.08-3.45
					c1.39,0,2.72,0.41,4,1.22c1.28,0.81,2.38,2.05,3.32,3.73c0.22,0.42,0.44,0.77,0.64,1.06c0.2,0.29,0.48,0.43,0.84,0.43
					c0.36,0,0.67-0.2,0.94-0.59c0.27-0.39,0.63-0.88,1.08-1.45c1.03-1.36,2.15-2.43,3.36-3.22c1.21-0.78,2.71-1.18,4.5-1.18
					c1.97,0,3.76,0.71,5.37,2.12c1.61,1.41,2.91,3.53,3.9,6.35s1.48,6.38,1.48,10.67c0,4.24-0.29,8.18-0.87,11.84
					c-0.58,3.66-1.36,6.86-2.32,9.61c-0.96,2.74-2,4.88-3.12,6.39C220.63,74.76,219.51,75.52,218.39,75.52z"/>
				<path class="st2" d="M263.59,75.52c-4.75,0-8.55-1.18-11.42-3.53c-2.87-2.35-4.94-6.14-6.21-11.37
					c-1.28-5.23-1.91-12.1-1.91-20.63c0-5.75,0.3-10.52,0.91-14.31c0.6-3.79,1.62-6.78,3.06-8.98c1.43-2.2,3.36-3.76,5.78-4.71
					c2.42-0.94,5.46-1.41,9.13-1.41c5.95,0,11.25,1.09,15.88,3.25c4.63,2.17,8.28,5.44,10.95,9.8c2.66,4.37,4,9.84,4,16.43
					c0,4.55-0.68,8.94-2.05,13.18s-3.35,8.03-5.94,11.37c-2.6,3.35-5.75,6-9.47,7.96C272.57,74.54,268.34,75.52,263.59,75.52z
					 M262.12,67.44c2.06,0,3.91-0.68,5.54-2.04c1.63-1.36,2.93-3.25,3.9-5.69c0.96-2.43,1.44-5.21,1.44-8.35
					c0-4.18-0.87-7.36-2.62-9.53c-1.75-2.17-4.32-3.25-7.72-3.25c-2.28,0-4,0.51-5.14,1.53c-1.14,1.02-1.91,2.52-2.32,4.51
					c-0.4,1.99-0.6,4.44-0.6,7.37c0,2.77,0.19,5.33,0.57,7.69c0.38,2.35,1.11,4.23,2.18,5.65
					C258.42,66.73,260.01,67.44,262.12,67.44z"/>
				<path class="st2" d="M305.37,75.52c-0.99,0-1.82-0.52-2.52-1.57c-0.69-1.05-1.29-2.51-1.78-4.39c-0.58-2.4-1.18-5.23-1.78-8.47
					c-0.6-3.24-1.11-6.72-1.51-10.43c-0.4-3.71-0.6-7.48-0.6-11.29c0-4.18,0.86-7.41,2.59-9.69c1.72-2.27,3.75-3.41,6.08-3.41
					c1.39,0,2.72,0.39,4,1.18c1.28,0.78,2.38,2.01,3.32,3.69c0.22,0.42,0.44,0.77,0.64,1.06c0.2,0.29,0.48,0.43,0.84,0.43
					s0.66-0.16,0.91-0.47c0.25-0.31,0.62-0.73,1.11-1.25c1.16-1.25,2.35-2.34,3.56-3.25c1.21-0.91,2.91-1.37,5.1-1.37
					c2.37,0,4.34,0.99,5.91,2.98c1.57,1.99,2.35,4.65,2.35,8c0,2.46-0.31,4.74-0.94,6.86c-0.63,2.12-1.54,3.8-2.75,5.06
					c-1.21,1.25-2.71,1.88-4.5,1.88c-1.12,0-2.14-0.25-3.06-0.75c-0.92-0.5-1.81-0.99-2.69-1.49c-0.87-0.5-1.87-0.75-2.99-0.75
					c-1.16,0-2.13,0.54-2.89,1.61c-0.76,1.07-1.37,2.46-1.81,4.16c-0.45,1.7-0.81,3.54-1.07,5.53c-0.27,1.99-0.52,3.92-0.74,5.8
					c-0.23,1.88-0.52,3.5-0.87,4.86c-0.36,1.62-0.86,2.94-1.51,3.96C307.11,75.01,306.31,75.52,305.37,75.52z"/>
				<path class="st2" d="M355.34,75.52c-3.63,0-6.93-1.15-9.91-3.45c-2.98-2.3-5.36-5.54-7.15-9.72c-1.79-4.18-2.69-9.07-2.69-14.67
					c0-7.01,1.56-12.33,4.67-15.96c3.11-3.63,8-5.45,14.68-5.45c6.76,0,11.7,1.84,14.81,5.53c3.11,3.69,4.67,9.03,4.67,16.04
					c0,5.54-0.86,10.39-2.59,14.55c-1.72,4.16-4.03,7.39-6.92,9.69C362.03,74.37,358.84,75.52,355.34,75.52z M355.07,68.85
					c1.75,0,3.07-0.78,3.96-2.35c0.9-1.57,1.34-3.82,1.34-6.74c0-2.82-0.45-5.01-1.34-6.55c-0.9-1.54-2.22-2.31-3.96-2.31
					c-1.79,0-3.13,0.77-4.03,2.31c-0.9,1.54-1.34,3.73-1.34,6.55c0,2.93,0.45,5.18,1.34,6.74
					C351.94,68.07,353.28,68.85,355.07,68.85z"/>
				<path class="st2" d="M388.12,90.1c-1.61,0-2.8-0.71-3.56-2.12c-0.76-1.41-1.43-3.32-2.01-5.72c-0.49-2.04-1-4.51-1.51-7.41
					c-0.51-2.9-0.99-6.03-1.41-9.37c-0.43-3.35-0.77-6.71-1.04-10.08c-0.27-3.37-0.4-6.55-0.4-9.53c0-7.01,0.85-12.02,2.55-15.06
					c1.7-3.03,4.23-4.55,7.59-4.55c3.63,0,6.4,1.75,8.33,5.25c0.22,0.42,0.43,0.75,0.6,0.98c0.18,0.24,0.42,0.35,0.74,0.35
					c0.36,0,0.64-0.13,0.84-0.39c0.2-0.26,0.44-0.6,0.71-1.02c1.08-1.67,2.45-2.95,4.13-3.84c1.68-0.89,3.48-1.33,5.41-1.33
					c2.28,0,4.24,0.56,5.88,1.69c1.63,1.12,2.98,2.63,4.03,4.51c1.05,1.88,1.82,3.99,2.32,6.31c0.49,2.33,0.74,4.72,0.74,7.18
					c0,3.35-0.43,6.74-1.28,10.2c-0.85,3.45-2.06,6.64-3.63,9.57c-1.57,2.93-3.44,5.29-5.61,7.1c-2.17,1.8-4.58,2.71-7.22,2.71
					c-1.84,0-3.42-0.6-4.77-1.8c-0.45-0.42-0.85-0.78-1.21-1.1c-0.36-0.31-0.74-0.47-1.14-0.47c-0.81,0-1.32,0.5-1.54,1.49
					c-0.31,1.62-0.58,3.05-0.81,4.27c-0.23,1.23-0.54,2.65-0.94,4.27c-0.63,2.56-1.36,4.52-2.18,5.88
					C390.88,89.42,389.69,90.1,388.12,90.1z M399.74,65.4c1.43,0,2.63-0.48,3.59-1.45c0.96-0.97,1.68-2.12,2.15-3.45
					c0.47-1.33,0.71-2.52,0.71-3.57c0-1.52-0.45-2.76-1.34-3.73c-0.9-0.97-2.26-1.45-4.1-1.45c-1.66,0-2.96,0.51-3.9,1.53
					c-0.94,1.02-1.41,2.84-1.41,5.45c0,2.09,0.35,3.73,1.04,4.9C397.18,64.81,398.26,65.4,399.74,65.4z"/>
			</g>
		</g>
	</g>
</g>
<g id="Layer_1">
</g>
</svg>
